# Tiled2Unity generated file. Do not modify by hand.
# Wavefront file for 'Prison_mesh_0007.obj'

# Vertices (Count = 16)
v -4.16 -1.6 0
v -4.48 -1.6 0
v -4.48 -1.28 0
v -4.16 -1.28 0
v -4.8 -1.92 0
v -5.12 -1.92 0
v -5.12 -1.6 0
v -4.8 -1.6 0
v -1.92 -3.52 0
v -2.24 -3.52 0
v -2.24 -3.2 0
v -1.92 -3.2 0
v -0.32 -4.48 0
v -0.64 -4.48 0
v -0.64 -4.16 0
v -0.32 -4.16 0

# Texture cooridinates (Count = 12)
vt 0.001838235 0.6268382
vt 0.06066176 0.6268382
vt 0.06066176 0.6856618
vt 0.001838235 0.6856618
vt 0.1268382 0.9393382
vt 0.1856618 0.9393382
vt 0.1856618 0.9981618
vt 0.1268382 0.9981618
vt 0.06433824 0.9393382
vt 0.1231618 0.9393382
vt 0.1231618 0.9981618
vt 0.06433824 0.9981618

# Normal
vn 0 0 -1

# Mesh description
g Prison_mesh_0007

# Faces
f 1/1/1 2/2/1 3/3/1 4/4/1
f 5/1/1 6/2/1 7/3/1 8/4/1
f 9/5/1 10/6/1 11/7/1 12/8/1
f 13/9/1 14/10/1 15/11/1 16/12/1

