# Tiled2Unity generated file. Do not modify by hand.
# Wavefront file for 'Beach_mesh_0007.obj'

# Vertices (Count = 116)
v -1.92 -7.36 0
v -2.24 -7.36 0
v -2.24 -7.04 0
v -1.92 -7.04 0
v -2.24 -7.36 0
v -2.56 -7.36 0
v -2.56 -7.04 0
v -2.24 -7.04 0
v -2.56 -7.36 0
v -2.88 -7.36 0
v -2.88 -7.04 0
v -2.56 -7.04 0
v -2.88 -7.36 0
v -3.2 -7.36 0
v -3.2 -7.04 0
v -2.88 -7.04 0
v -3.2 -7.36 0
v -3.52 -7.36 0
v -3.52 -7.04 0
v -3.2 -7.04 0
v -3.52 -7.36 0
v -3.84 -7.36 0
v -3.84 -7.04 0
v -3.52 -7.04 0
v -3.84 -7.36 0
v -4.16 -7.36 0
v -4.16 -7.04 0
v -3.84 -7.04 0
v -4.16 -7.36 0
v -4.48 -7.36 0
v -4.48 -7.04 0
v -4.16 -7.04 0
v -4.16 -7.68 0
v -4.48 -7.68 0
v -4.48 -7.36 0
v -4.16 -7.36 0
v -4.16 -8 0
v -4.48 -8 0
v -4.48 -7.68 0
v -4.16 -7.68 0
v -2.56 -8.32 0
v -2.88 -8.32 0
v -2.88 -8 0
v -2.56 -8 0
v -2.88 -8.32 0
v -3.2 -8.32 0
v -3.2 -8 0
v -2.88 -8 0
v -4.16 -8.32 0
v -4.48 -8.32 0
v -4.48 -8 0
v -4.16 -8 0
v -2.56 -8.639999 0
v -2.88 -8.639999 0
v -2.88 -8.32 0
v -2.56 -8.32 0
v -2.88 -8.639999 0
v -3.2 -8.639999 0
v -3.2 -8.32 0
v -2.88 -8.32 0
v -4.16 -8.639999 0
v -4.48 -8.639999 0
v -4.48 -8.32 0
v -4.16 -8.32 0
v -3.52 -8.96 0
v -3.84 -8.96 0
v -3.84 -8.639999 0
v -3.52 -8.639999 0
v -4.16 -8.96 0
v -4.48 -8.96 0
v -4.48 -8.639999 0
v -4.16 -8.639999 0
v -4.16 -9.28 0
v -4.48 -9.28 0
v -4.48 -8.96 0
v -4.16 -8.96 0
v -4.16 -9.599999 0
v -4.48 -9.599999 0
v -4.48 -9.28 0
v -4.16 -9.28 0
v -4.16 -9.92 0
v -4.48 -9.92 0
v -4.48 -9.599999 0
v -4.16 -9.599999 0
v -1.92 -10.24 0
v -2.24 -10.24 0
v -2.24 -9.92 0
v -1.92 -9.92 0
v -2.24 -10.24 0
v -2.56 -10.24 0
v -2.56 -9.92 0
v -2.24 -9.92 0
v -2.56 -10.24 0
v -2.88 -10.24 0
v -2.88 -9.92 0
v -2.56 -9.92 0
v -2.88 -10.24 0
v -3.2 -10.24 0
v -3.2 -9.92 0
v -2.88 -9.92 0
v -3.2 -10.24 0
v -3.52 -10.24 0
v -3.52 -9.92 0
v -3.2 -9.92 0
v -3.52 -10.24 0
v -3.84 -10.24 0
v -3.84 -9.92 0
v -3.52 -9.92 0
v -3.84 -10.24 0
v -4.16 -10.24 0
v -4.16 -9.92 0
v -3.84 -9.92 0
v -4.16 -10.24 0
v -4.48 -10.24 0
v -4.48 -9.92 0
v -4.16 -9.92 0

# Texture cooridinates (Count = 40)
vt 0.6259191 0.5009191
vt 0.6553309 0.5009191
vt 0.6553309 0.5303309
vt 0.6259191 0.5303309
vt 0.6259191 0.5946691
vt 0.6553309 0.5946691
vt 0.6553309 0.6240809
vt 0.6259191 0.6240809
vt 0.5946691 0.5009191
vt 0.6240809 0.5009191
vt 0.6240809 0.5303309
vt 0.5946691 0.5303309
vt 0.5634191 0.5321691
vt 0.5928309 0.5321691
vt 0.5928309 0.5615809
vt 0.5634191 0.5615809
vt 0.4384191 0.5946691
vt 0.4678309 0.5946691
vt 0.4678309 0.6240809
vt 0.4384191 0.6240809
vt 0.4696691 0.5946691
vt 0.4990809 0.5946691
vt 0.4990809 0.6240809
vt 0.4696691 0.6240809
vt 0.5009191 0.5946691
vt 0.5303309 0.5946691
vt 0.5303309 0.6240809
vt 0.5009191 0.6240809
vt 0.4696691 0.5634191
vt 0.4990809 0.5634191
vt 0.4990809 0.5928309
vt 0.4696691 0.5928309
vt 0.5009191 0.5634191
vt 0.5303309 0.5634191
vt 0.5303309 0.5928309
vt 0.5009191 0.5928309
vt 0.5321691 0.5946691
vt 0.5615809 0.5946691
vt 0.5615809 0.6240809
vt 0.5321691 0.6240809

# Normal
vn 0 0 -1

# Mesh description
g Beach_mesh_0007

# Faces
f 1/1/1 2/2/1 3/3/1 4/4/1
f 5/5/1 6/6/1 7/7/1 8/8/1
f 9/1/1 10/2/1 11/3/1 12/4/1
f 13/9/1 14/10/1 15/11/1 16/12/1
f 17/13/1 18/14/1 19/15/1 20/16/1
f 21/1/1 22/2/1 23/3/1 24/4/1
f 25/13/1 26/14/1 27/15/1 28/16/1
f 29/9/1 30/10/1 31/11/1 32/12/1
f 33/17/1 34/18/1 35/19/1 36/20/1
f 37/5/1 38/6/1 39/7/1 40/8/1
f 41/21/1 42/22/1 43/23/1 44/24/1
f 45/25/1 46/26/1 47/27/1 48/28/1
f 49/13/1 50/14/1 51/15/1 52/16/1
f 53/29/1 54/30/1 55/31/1 56/32/1
f 57/33/1 58/34/1 59/35/1 60/36/1
f 61/17/1 62/18/1 63/19/1 64/20/1
f 65/37/1 66/38/1 67/39/1 68/40/1
f 69/9/1 70/10/1 71/11/1 72/12/1
f 73/5/1 74/6/1 75/7/1 76/8/1
f 77/17/1 78/18/1 79/19/1 80/20/1
f 81/1/1 82/2/1 83/3/1 84/4/1
f 85/1/1 86/2/1 87/3/1 88/4/1
f 89/17/1 90/18/1 91/19/1 92/20/1
f 93/9/1 94/10/1 95/11/1 96/12/1
f 97/13/1 98/14/1 99/15/1 100/16/1
f 101/1/1 102/2/1 103/3/1 104/4/1
f 105/9/1 106/10/1 107/11/1 108/12/1
f 109/1/1 110/2/1 111/3/1 112/4/1
f 113/13/1 114/14/1 115/15/1 116/16/1

