# Tiled2Unity generated file. Do not modify by hand.
# Wavefront file for 'Beach_mesh_0003.obj'

# Vertices (Count = 208)
v -0.32 -4.8 0
v -0.64 -4.8 0
v -0.64 -4.48 0
v -0.32 -4.48 0
v -0.64 -4.8 0
v -0.96 -4.8 0
v -0.96 -4.48 0
v -0.64 -4.48 0
v -0.96 -4.8 0
v -1.28 -4.8 0
v -1.28 -4.48 0
v -0.96 -4.48 0
v -0.32 -5.12 0
v -0.64 -5.12 0
v -0.64 -4.8 0
v -0.32 -4.8 0
v -0.64 -5.12 0
v -0.96 -5.12 0
v -0.96 -4.8 0
v -0.64 -4.8 0
v -0.96 -5.12 0
v -1.28 -5.12 0
v -1.28 -4.8 0
v -0.96 -4.8 0
v 0 -5.44 0
v -0.32 -5.44 0
v -0.32 -5.12 0
v 0 -5.12 0
v -0.32 -5.44 0
v -0.64 -5.44 0
v -0.64 -5.12 0
v -0.32 -5.12 0
v -0.64 -5.44 0
v -0.96 -5.44 0
v -0.96 -5.12 0
v -0.64 -5.12 0
v -0.96 -5.44 0
v -1.28 -5.44 0
v -1.28 -5.12 0
v -0.96 -5.12 0
v 0 -5.76 0
v -0.32 -5.76 0
v -0.32 -5.44 0
v 0 -5.44 0
v -0.32 -5.76 0
v -0.64 -5.76 0
v -0.64 -5.44 0
v -0.32 -5.44 0
v -0.64 -5.76 0
v -0.96 -5.76 0
v -0.96 -5.44 0
v -0.64 -5.44 0
v -0.96 -5.76 0
v -1.28 -5.76 0
v -1.28 -5.44 0
v -0.96 -5.44 0
v 0 -6.08 0
v -0.32 -6.08 0
v -0.32 -5.76 0
v 0 -5.76 0
v -0.32 -6.08 0
v -0.64 -6.08 0
v -0.64 -5.76 0
v -0.32 -5.76 0
v -0.64 -6.08 0
v -0.96 -6.08 0
v -0.96 -5.76 0
v -0.64 -5.76 0
v -0.96 -6.08 0
v -1.28 -6.08 0
v -1.28 -5.76 0
v -0.96 -5.76 0
v -0.32 -6.4 0
v -0.64 -6.4 0
v -0.64 -6.08 0
v -0.32 -6.08 0
v -0.64 -6.4 0
v -0.96 -6.4 0
v -0.96 -6.08 0
v -0.64 -6.08 0
v -0.96 -6.4 0
v -1.28 -6.4 0
v -1.28 -6.08 0
v -0.96 -6.08 0
v -0.32 -6.72 0
v -0.64 -6.72 0
v -0.64 -6.4 0
v -0.32 -6.4 0
v -0.64 -6.72 0
v -0.96 -6.72 0
v -0.96 -6.4 0
v -0.64 -6.4 0
v -0.96 -6.72 0
v -1.28 -6.72 0
v -1.28 -6.4 0
v -0.96 -6.4 0
v 0 -7.04 0
v -0.32 -7.04 0
v -0.32 -6.72 0
v 0 -6.72 0
v -0.32 -7.04 0
v -0.64 -7.04 0
v -0.64 -6.72 0
v -0.32 -6.72 0
v -0.64 -7.04 0
v -0.96 -7.04 0
v -0.96 -6.72 0
v -0.64 -6.72 0
v -0.96 -7.04 0
v -1.28 -7.04 0
v -1.28 -6.72 0
v -0.96 -6.72 0
v 0 -7.36 0
v -0.32 -7.36 0
v -0.32 -7.04 0
v 0 -7.04 0
v -0.32 -7.36 0
v -0.64 -7.36 0
v -0.64 -7.04 0
v -0.32 -7.04 0
v -0.64 -7.36 0
v -0.96 -7.36 0
v -0.96 -7.04 0
v -0.64 -7.04 0
v -0.96 -7.36 0
v -1.28 -7.36 0
v -1.28 -7.04 0
v -0.96 -7.04 0
v 0 -7.68 0
v -0.32 -7.68 0
v -0.32 -7.36 0
v 0 -7.36 0
v -0.32 -7.68 0
v -0.64 -7.68 0
v -0.64 -7.36 0
v -0.32 -7.36 0
v -0.64 -7.68 0
v -0.96 -7.68 0
v -0.96 -7.36 0
v -0.64 -7.36 0
v -0.96 -7.68 0
v -1.28 -7.68 0
v -1.28 -7.36 0
v -0.96 -7.36 0
v 0 -8 0
v -0.32 -8 0
v -0.32 -7.68 0
v 0 -7.68 0
v -0.32 -8 0
v -0.64 -8 0
v -0.64 -7.68 0
v -0.32 -7.68 0
v -0.64 -8 0
v -0.96 -8 0
v -0.96 -7.68 0
v -0.64 -7.68 0
v -0.96 -8 0
v -1.28 -8 0
v -1.28 -7.68 0
v -0.96 -7.68 0
v 0 -8.32 0
v -0.32 -8.32 0
v -0.32 -8 0
v 0 -8 0
v -0.32 -8.32 0
v -0.64 -8.32 0
v -0.64 -8 0
v -0.32 -8 0
v -0.64 -8.32 0
v -0.96 -8.32 0
v -0.96 -8 0
v -0.64 -8 0
v -0.96 -8.32 0
v -1.28 -8.32 0
v -1.28 -8 0
v -0.96 -8 0
v 0 -8.639999 0
v -0.32 -8.639999 0
v -0.32 -8.32 0
v 0 -8.32 0
v -0.32 -8.639999 0
v -0.64 -8.639999 0
v -0.64 -8.32 0
v -0.32 -8.32 0
v -0.64 -8.639999 0
v -0.96 -8.639999 0
v -0.96 -8.32 0
v -0.64 -8.32 0
v 0 -8.96 0
v -0.32 -8.96 0
v -0.32 -8.639999 0
v 0 -8.639999 0
v -0.32 -8.96 0
v -0.64 -8.96 0
v -0.64 -8.639999 0
v -0.32 -8.639999 0
v -0.64 -8.96 0
v -0.96 -8.96 0
v -0.96 -8.639999 0
v -0.64 -8.639999 0
v 0 -9.28 0
v -0.32 -9.28 0
v -0.32 -8.96 0
v 0 -8.96 0
v -0.32 -9.28 0
v -0.64 -9.28 0
v -0.64 -8.96 0
v -0.32 -8.96 0

# Texture cooridinates (Count = 52)
vt 0.5634191 0.9071691
vt 0.5928309 0.9071691
vt 0.5928309 0.9365809
vt 0.5634191 0.9365809
vt 0.5946691 0.9071691
vt 0.6240809 0.9071691
vt 0.6240809 0.9365809
vt 0.5946691 0.9365809
vt 0.6259191 0.9071691
vt 0.6553309 0.9071691
vt 0.6553309 0.9365809
vt 0.6259191 0.9365809
vt 0.5634191 0.8759191
vt 0.5928309 0.8759191
vt 0.5928309 0.9053309
vt 0.5634191 0.9053309
vt 0.5946691 0.8759191
vt 0.6240809 0.8759191
vt 0.6240809 0.9053309
vt 0.5946691 0.9053309
vt 0.6259191 0.8759191
vt 0.6553309 0.8759191
vt 0.6553309 0.9053309
vt 0.6259191 0.9053309
vt 0.5634191 0.8446691
vt 0.5928309 0.8446691
vt 0.5928309 0.8740809
vt 0.5634191 0.8740809
vt 0.6259191 0.9696691
vt 0.6553309 0.9696691
vt 0.6553309 0.9990809
vt 0.6259191 0.9990809
vt 0.5946691 0.9384191
vt 0.6240809 0.9384191
vt 0.6240809 0.9678309
vt 0.5946691 0.9678309
vt 0.6259191 0.9384191
vt 0.6553309 0.9384191
vt 0.6553309 0.9678309
vt 0.6259191 0.9678309
vt 0.5946691 0.8446691
vt 0.6240809 0.8446691
vt 0.6240809 0.8740809
vt 0.5946691 0.8740809
vt 0.5946691 0.9696691
vt 0.6240809 0.9696691
vt 0.6240809 0.9990809
vt 0.5946691 0.9990809
vt 0.6259191 0.8446691
vt 0.6553309 0.8446691
vt 0.6553309 0.8740809
vt 0.6259191 0.8740809

# Normal
vn 0 0 -1

# Mesh description
g Beach_mesh_0003

# Faces
f 1/1/1 2/2/1 3/3/1 4/4/1
f 5/5/1 6/6/1 7/7/1 8/8/1
f 9/9/1 10/10/1 11/11/1 12/12/1
f 13/13/1 14/14/1 15/15/1 16/16/1
f 17/17/1 18/18/1 19/19/1 20/20/1
f 21/21/1 22/22/1 23/23/1 24/24/1
f 25/9/1 26/10/1 27/11/1 28/12/1
f 29/25/1 30/26/1 31/27/1 32/28/1
f 33/29/1 34/30/1 35/31/1 36/32/1
f 37/21/1 38/22/1 39/23/1 40/24/1
f 41/33/1 42/34/1 43/35/1 44/36/1
f 45/5/1 46/6/1 47/7/1 48/8/1
f 49/37/1 50/38/1 51/39/1 52/40/1
f 53/21/1 54/22/1 55/23/1 56/24/1
f 57/41/1 58/42/1 59/43/1 60/44/1
f 61/29/1 62/30/1 63/31/1 64/32/1
f 65/17/1 66/18/1 67/19/1 68/20/1
f 69/21/1 70/22/1 71/23/1 72/24/1
f 73/13/1 74/14/1 75/15/1 76/16/1
f 77/17/1 78/18/1 79/19/1 80/20/1
f 81/21/1 82/22/1 83/23/1 84/24/1
f 85/13/1 86/14/1 87/15/1 88/16/1
f 89/17/1 90/18/1 91/19/1 92/20/1
f 93/21/1 94/22/1 95/23/1 96/24/1
f 97/1/1 98/2/1 99/3/1 100/4/1
f 101/37/1 102/38/1 103/39/1 104/40/1
f 105/17/1 106/18/1 107/19/1 108/20/1
f 109/21/1 110/22/1 111/23/1 112/24/1
f 113/13/1 114/14/1 115/15/1 116/16/1
f 117/17/1 118/18/1 119/19/1 120/20/1
f 121/17/1 122/18/1 123/19/1 124/20/1
f 125/21/1 126/22/1 127/23/1 128/24/1
f 129/13/1 130/14/1 131/15/1 132/16/1
f 133/17/1 134/18/1 135/19/1 136/20/1
f 137/17/1 138/18/1 139/19/1 140/20/1
f 141/21/1 142/22/1 143/23/1 144/24/1
f 145/37/1 146/38/1 147/39/1 148/40/1
f 149/17/1 150/18/1 151/19/1 152/20/1
f 153/17/1 154/18/1 155/19/1 156/20/1
f 157/21/1 158/22/1 159/23/1 160/24/1
f 161/17/1 162/18/1 163/19/1 164/20/1
f 165/17/1 166/18/1 167/19/1 168/20/1
f 169/45/1 170/46/1 171/47/1 172/48/1
f 173/49/1 174/50/1 175/51/1 176/52/1
f 177/17/1 178/18/1 179/19/1 180/20/1
f 181/17/1 182/18/1 183/19/1 184/20/1
f 185/21/1 186/22/1 187/23/1 188/24/1
f 189/17/1 190/18/1 191/19/1 192/20/1
f 193/45/1 194/46/1 195/47/1 196/48/1
f 197/49/1 198/50/1 199/51/1 200/52/1
f 201/41/1 202/42/1 203/43/1 204/44/1
f 205/49/1 206/50/1 207/51/1 208/52/1

