# Tiled2Unity generated file. Do not modify by hand.
# Wavefront file for 'Beach_mesh_0004.obj'

# Vertices (Count = 80)
v -2.56 -0.96 0
v -2.88 -0.96 0
v -2.88 -0.64 0
v -2.56 -0.64 0
v -3.2 -1.28 0
v -3.52 -1.28 0
v -3.52 -0.96 0
v -3.2 -0.96 0
v -1.6 -1.6 0
v -1.92 -1.6 0
v -1.92 -1.28 0
v -1.6 -1.28 0
v -0.32 -1.92 0
v -0.64 -1.92 0
v -0.64 -1.6 0
v -0.32 -1.6 0
v -4.16 -3.84 0
v -4.48 -3.84 0
v -4.48 -3.52 0
v -4.16 -3.52 0
v -4.48 -4.8 0
v -4.8 -4.8 0
v -4.8 -4.48 0
v -4.48 -4.48 0
v 0 -5.12 0
v -0.32 -5.12 0
v -0.32 -4.8 0
v 0 -4.8 0
v -1.6 -5.44 0
v -1.92 -5.44 0
v -1.92 -5.12 0
v -1.6 -5.12 0
v -4.48 -6.4 0
v -4.8 -6.4 0
v -4.8 -6.08 0
v -4.48 -6.08 0
v -0.96 -7.04 0
v -1.28 -7.04 0
v -1.28 -6.72 0
v -0.96 -6.72 0
v -0.32 -8 0
v -0.64 -8 0
v -0.64 -7.68 0
v -0.32 -7.68 0
v -0.96 -8.32 0
v -1.28 -8.32 0
v -1.28 -8 0
v -0.96 -8 0
v -0.32 -9.28 0
v -0.64 -9.28 0
v -0.64 -8.96 0
v -0.32 -8.96 0
v -0.64 -10.24 0
v -0.96 -10.24 0
v -0.96 -9.92 0
v -0.64 -9.92 0
v -0.32 -10.56 0
v -0.64 -10.56 0
v -0.64 -10.24 0
v -0.32 -10.24 0
v -2.56 -12.48 0
v -2.88 -12.48 0
v -2.88 -12.16 0
v -2.56 -12.16 0
v -2.88 -12.48 0
v -3.2 -12.48 0
v -3.2 -12.16 0
v -2.88 -12.16 0
v -2.24 -12.8 0
v -2.56 -12.8 0
v -2.56 -12.48 0
v -2.24 -12.48 0
v -4.8 -12.8 0
v -5.12 -12.8 0
v -5.12 -12.48 0
v -4.8 -12.48 0
v -3.52 -13.44 0
v -3.84 -13.44 0
v -3.84 -13.12 0
v -3.52 -13.12 0

# Texture cooridinates (Count = 12)
vt 0.5009191 0.5009191
vt 0.5303309 0.5009191
vt 0.5303309 0.5303309
vt 0.5009191 0.5303309
vt 0.3134191 0.5321691
vt 0.3428309 0.5321691
vt 0.3428309 0.5615809
vt 0.3134191 0.5615809
vt 0.4696691 0.5009191
vt 0.4990809 0.5009191
vt 0.4990809 0.5303309
vt 0.4696691 0.5303309

# Normal
vn 0 0 -1

# Mesh description
g Beach_mesh_0004

# Faces
f 1/1/1 2/2/1 3/3/1 4/4/1
f 5/5/1 6/6/1 7/7/1 8/8/1
f 9/1/1 10/2/1 11/3/1 12/4/1
f 13/5/1 14/6/1 15/7/1 16/8/1
f 17/9/1 18/10/1 19/11/1 20/12/1
f 21/9/1 22/10/1 23/11/1 24/12/1
f 25/1/1 26/2/1 27/3/1 28/4/1
f 29/9/1 30/10/1 31/11/1 32/12/1
f 33/5/1 34/6/1 35/7/1 36/8/1
f 37/1/1 38/2/1 39/3/1 40/4/1
f 41/1/1 42/2/1 43/3/1 44/4/1
f 45/9/1 46/10/1 47/11/1 48/12/1
f 49/9/1 50/10/1 51/11/1 52/12/1
f 53/1/1 54/2/1 55/3/1 56/4/1
f 57/5/1 58/6/1 59/7/1 60/8/1
f 61/9/1 62/10/1 63/11/1 64/12/1
f 65/9/1 66/10/1 67/11/1 68/12/1
f 69/1/1 70/2/1 71/3/1 72/4/1
f 73/5/1 74/6/1 75/7/1 76/8/1
f 77/9/1 78/10/1 79/11/1 80/12/1

