# Tiled2Unity generated file. Do not modify by hand.
# Wavefront file for 'Beach_mesh_0006.obj'

# Vertices (Count = 96)
v -1.92 -7.68 0
v -2.24 -7.68 0
v -2.24 -7.36 0
v -1.92 -7.36 0
v -2.24 -7.68 0
v -2.56 -7.68 0
v -2.56 -7.36 0
v -2.24 -7.36 0
v -2.56 -7.68 0
v -2.88 -7.68 0
v -2.88 -7.36 0
v -2.56 -7.36 0
v -2.88 -7.68 0
v -3.2 -7.68 0
v -3.2 -7.36 0
v -2.88 -7.36 0
v -3.2 -7.68 0
v -3.52 -7.68 0
v -3.52 -7.36 0
v -3.2 -7.36 0
v -3.52 -7.68 0
v -3.84 -7.68 0
v -3.84 -7.36 0
v -3.52 -7.36 0
v -3.84 -7.68 0
v -4.16 -7.68 0
v -4.16 -7.36 0
v -3.84 -7.36 0
v -4.16 -7.68 0
v -4.48 -7.68 0
v -4.48 -7.36 0
v -4.16 -7.36 0
v -4.16 -8 0
v -4.48 -8 0
v -4.48 -7.68 0
v -4.16 -7.68 0
v -4.16 -8.32 0
v -4.48 -8.32 0
v -4.48 -8 0
v -4.16 -8 0
v -4.16 -8.639999 0
v -4.48 -8.639999 0
v -4.48 -8.32 0
v -4.16 -8.32 0
v -4.16 -8.96 0
v -4.48 -8.96 0
v -4.48 -8.639999 0
v -4.16 -8.639999 0
v -4.16 -9.28 0
v -4.48 -9.28 0
v -4.48 -8.96 0
v -4.16 -8.96 0
v -4.16 -9.599999 0
v -4.48 -9.599999 0
v -4.48 -9.28 0
v -4.16 -9.28 0
v -4.16 -9.92 0
v -4.48 -9.92 0
v -4.48 -9.599999 0
v -4.16 -9.599999 0
v -4.16 -10.24 0
v -4.48 -10.24 0
v -4.48 -9.92 0
v -4.16 -9.92 0
v -1.92 -10.56 0
v -2.24 -10.56 0
v -2.24 -10.24 0
v -1.92 -10.24 0
v -2.24 -10.56 0
v -2.56 -10.56 0
v -2.56 -10.24 0
v -2.24 -10.24 0
v -2.56 -10.56 0
v -2.88 -10.56 0
v -2.88 -10.24 0
v -2.56 -10.24 0
v -2.88 -10.56 0
v -3.2 -10.56 0
v -3.2 -10.24 0
v -2.88 -10.24 0
v -3.2 -10.56 0
v -3.52 -10.56 0
v -3.52 -10.24 0
v -3.2 -10.24 0
v -3.52 -10.56 0
v -3.84 -10.56 0
v -3.84 -10.24 0
v -3.52 -10.24 0
v -3.84 -10.56 0
v -4.16 -10.56 0
v -4.16 -10.24 0
v -3.84 -10.24 0
v -4.16 -10.56 0
v -4.48 -10.56 0
v -4.48 -10.24 0
v -4.16 -10.24 0

# Texture cooridinates (Count = 12)
vt 0.5946691 0.4696691
vt 0.6240809 0.4696691
vt 0.6240809 0.4990809
vt 0.5946691 0.4990809
vt 0.6259191 0.5634191
vt 0.6553309 0.5634191
vt 0.6553309 0.5928309
vt 0.6259191 0.5928309
vt 0.4384191 0.5634191
vt 0.4678309 0.5634191
vt 0.4678309 0.5928309
vt 0.4384191 0.5928309

# Normal
vn 0 0 -1

# Mesh description
g Beach_mesh_0006

# Faces
f 1/1/1 2/2/1 3/3/1 4/4/1
f 5/5/1 6/6/1 7/7/1 8/8/1
f 9/1/1 10/2/1 11/3/1 12/4/1
f 13/1/1 14/2/1 15/3/1 16/4/1
f 17/5/1 18/6/1 19/7/1 20/8/1
f 21/1/1 22/2/1 23/3/1 24/4/1
f 25/5/1 26/6/1 27/7/1 28/8/1
f 29/1/1 30/2/1 31/3/1 32/4/1
f 33/9/1 34/10/1 35/11/1 36/12/1
f 37/5/1 38/6/1 39/7/1 40/8/1
f 41/5/1 42/6/1 43/7/1 44/8/1
f 45/9/1 46/10/1 47/11/1 48/12/1
f 49/1/1 50/2/1 51/3/1 52/4/1
f 53/5/1 54/6/1 55/7/1 56/8/1
f 57/9/1 58/10/1 59/11/1 60/12/1
f 61/1/1 62/2/1 63/3/1 64/4/1
f 65/1/1 66/2/1 67/3/1 68/4/1
f 69/9/1 70/10/1 71/11/1 72/12/1
f 73/1/1 74/2/1 75/3/1 76/4/1
f 77/5/1 78/6/1 79/7/1 80/8/1
f 81/1/1 82/2/1 83/3/1 84/4/1
f 85/1/1 86/2/1 87/3/1 88/4/1
f 89/1/1 90/2/1 91/3/1 92/4/1
f 93/5/1 94/6/1 95/7/1 96/8/1

