# Tiled2Unity generated file. Do not modify by hand.
# Wavefront file for 'CastleOutDoors_mesh_0009.obj'

# Vertices (Count = 248)
v -3.84 -0.32 0
v -4.16 -0.32 0
v -4.16 0 0
v -3.84 0 0
v -10.24 -0.32 0
v -10.56 -0.32 0
v -10.56 0 0
v -10.24 0 0
v -3.84 -0.64 0
v -4.16 -0.64 0
v -4.16 -0.32 0
v -3.84 -0.32 0
v -10.24 -0.64 0
v -10.56 -0.64 0
v -10.56 -0.32 0
v -10.24 -0.32 0
v -3.84 -0.96 0
v -4.16 -0.96 0
v -4.16 -0.64 0
v -3.84 -0.64 0
v -10.24 -0.96 0
v -10.56 -0.96 0
v -10.56 -0.64 0
v -10.24 -0.64 0
v -3.84 -1.28 0
v -4.16 -1.28 0
v -4.16 -0.96 0
v -3.84 -0.96 0
v -10.24 -1.28 0
v -10.56 -1.28 0
v -10.56 -0.96 0
v -10.24 -0.96 0
v -3.84 -1.6 0
v -4.16 -1.6 0
v -4.16 -1.28 0
v -3.84 -1.28 0
v -10.24 -1.6 0
v -10.56 -1.6 0
v -10.56 -1.28 0
v -10.24 -1.28 0
v -3.84 -1.92 0
v -4.16 -1.92 0
v -4.16 -1.6 0
v -3.84 -1.6 0
v -4.16 -1.92 0
v -4.48 -1.92 0
v -4.48 -1.6 0
v -4.16 -1.6 0
v -4.48 -1.92 0
v -4.8 -1.92 0
v -4.8 -1.6 0
v -4.48 -1.6 0
v -4.8 -1.92 0
v -5.12 -1.92 0
v -5.12 -1.6 0
v -4.8 -1.6 0
v -6.72 -1.92 0
v -7.04 -1.92 0
v -7.04 -1.6 0
v -6.72 -1.6 0
v -7.04 -1.92 0
v -7.36 -1.92 0
v -7.36 -1.6 0
v -7.04 -1.6 0
v -7.36 -1.92 0
v -7.68 -1.92 0
v -7.68 -1.6 0
v -7.36 -1.6 0
v -9.28 -1.92 0
v -9.599999 -1.92 0
v -9.599999 -1.6 0
v -9.28 -1.6 0
v -9.599999 -1.92 0
v -9.92 -1.92 0
v -9.92 -1.6 0
v -9.599999 -1.6 0
v -9.92 -1.92 0
v -10.24 -1.92 0
v -10.24 -1.6 0
v -9.92 -1.6 0
v -10.24 -1.92 0
v -10.56 -1.92 0
v -10.56 -1.6 0
v -10.24 -1.6 0
v -3.84 -2.24 0
v -4.16 -2.24 0
v -4.16 -1.92 0
v -3.84 -1.92 0
v -4.16 -2.24 0
v -4.48 -2.24 0
v -4.48 -1.92 0
v -4.16 -1.92 0
v -4.48 -2.24 0
v -4.8 -2.24 0
v -4.8 -1.92 0
v -4.48 -1.92 0
v -4.8 -2.24 0
v -5.12 -2.24 0
v -5.12 -1.92 0
v -4.8 -1.92 0
v -6.72 -2.24 0
v -7.04 -2.24 0
v -7.04 -1.92 0
v -6.72 -1.92 0
v -7.04 -2.24 0
v -7.36 -2.24 0
v -7.36 -1.92 0
v -7.04 -1.92 0
v -7.36 -2.24 0
v -7.68 -2.24 0
v -7.68 -1.92 0
v -7.36 -1.92 0
v -9.28 -2.24 0
v -9.599999 -2.24 0
v -9.599999 -1.92 0
v -9.28 -1.92 0
v -9.599999 -2.24 0
v -9.92 -2.24 0
v -9.92 -1.92 0
v -9.599999 -1.92 0
v -9.92 -2.24 0
v -10.24 -2.24 0
v -10.24 -1.92 0
v -9.92 -1.92 0
v -10.24 -2.24 0
v -10.56 -2.24 0
v -10.56 -1.92 0
v -10.24 -1.92 0
v -3.84 -2.56 0
v -4.16 -2.56 0
v -4.16 -2.24 0
v -3.84 -2.24 0
v -4.16 -2.56 0
v -4.48 -2.56 0
v -4.48 -2.24 0
v -4.16 -2.24 0
v -4.48 -2.56 0
v -4.8 -2.56 0
v -4.8 -2.24 0
v -4.48 -2.24 0
v -4.8 -2.56 0
v -5.12 -2.56 0
v -5.12 -2.24 0
v -4.8 -2.24 0
v -6.72 -2.56 0
v -7.04 -2.56 0
v -7.04 -2.24 0
v -6.72 -2.24 0
v -7.04 -2.56 0
v -7.36 -2.56 0
v -7.36 -2.24 0
v -7.04 -2.24 0
v -7.36 -2.56 0
v -7.68 -2.56 0
v -7.68 -2.24 0
v -7.36 -2.24 0
v -9.28 -2.56 0
v -9.599999 -2.56 0
v -9.599999 -2.24 0
v -9.28 -2.24 0
v -9.599999 -2.56 0
v -9.92 -2.56 0
v -9.92 -2.24 0
v -9.599999 -2.24 0
v -9.92 -2.56 0
v -10.24 -2.56 0
v -10.24 -2.24 0
v -9.92 -2.24 0
v -10.24 -2.56 0
v -10.56 -2.56 0
v -10.56 -2.24 0
v -10.24 -2.24 0
v -3.84 -2.88 0
v -4.16 -2.88 0
v -4.16 -2.56 0
v -3.84 -2.56 0
v -4.16 -2.88 0
v -4.48 -2.88 0
v -4.48 -2.56 0
v -4.16 -2.56 0
v -4.48 -2.88 0
v -4.8 -2.88 0
v -4.8 -2.56 0
v -4.48 -2.56 0
v -4.8 -2.88 0
v -5.12 -2.88 0
v -5.12 -2.56 0
v -4.8 -2.56 0
v -6.72 -2.88 0
v -7.04 -2.88 0
v -7.04 -2.56 0
v -6.72 -2.56 0
v -7.04 -2.88 0
v -7.36 -2.88 0
v -7.36 -2.56 0
v -7.04 -2.56 0
v -7.36 -2.88 0
v -7.68 -2.88 0
v -7.68 -2.56 0
v -7.36 -2.56 0
v -9.28 -2.88 0
v -9.599999 -2.88 0
v -9.599999 -2.56 0
v -9.28 -2.56 0
v -9.599999 -2.88 0
v -9.92 -2.88 0
v -9.92 -2.56 0
v -9.599999 -2.56 0
v -9.92 -2.88 0
v -10.24 -2.88 0
v -10.24 -2.56 0
v -9.92 -2.56 0
v -10.24 -2.88 0
v -10.56 -2.88 0
v -10.56 -2.56 0
v -10.24 -2.56 0
v -3.84 -3.2 0
v -4.16 -3.2 0
v -4.16 -2.88 0
v -3.84 -2.88 0
v -4.16 -3.2 0
v -4.48 -3.2 0
v -4.48 -2.88 0
v -4.16 -2.88 0
v -4.48 -3.2 0
v -4.8 -3.2 0
v -4.8 -2.88 0
v -4.48 -2.88 0
v -4.8 -3.2 0
v -5.12 -3.2 0
v -5.12 -2.88 0
v -4.8 -2.88 0
v -9.28 -3.2 0
v -9.599999 -3.2 0
v -9.599999 -2.88 0
v -9.28 -2.88 0
v -9.599999 -3.2 0
v -9.92 -3.2 0
v -9.92 -2.88 0
v -9.599999 -2.88 0
v -9.92 -3.2 0
v -10.24 -3.2 0
v -10.24 -2.88 0
v -9.92 -2.88 0
v -10.24 -3.2 0
v -10.56 -3.2 0
v -10.56 -2.88 0
v -10.24 -2.88 0

# Texture cooridinates (Count = 55)
vt 0.375 0.875
vt 0.4375 0.875
vt 0.4375 0.9375
vt 0.375 0.9375
vt 0.5625 0.875
vt 0.625 0.875
vt 0.625 0.9375
vt 0.5625 0.9375
vt 0.375 0.8125
vt 0.4375 0.8125
vt 0.3125 0.8125
vt 0.3125 0.875
vt 0.1875 0.8125
vt 0.25 0.8125
vt 0.25 0.875
vt 0.1875 0.875
vt 0.5625 0.8125
vt 0.625 0.8125
vt 0.375 0.75
vt 0.4375 0.75
vt 0.5 0.75
vt 0.5 0.8125
vt 0.8125 0.75
vt 0.875 0.75
vt 0.875 0.8125
vt 0.8125 0.8125
vt 0.9375 0.75
vt 0.9375 0.8125
vt 1 0.75
vt 1 0.8125
vt 0.5625 0.75
vt 0.625 0.75
vt 0.375 0.6875
vt 0.4375 0.6875
vt 0.5 0.6875
vt 0.4375 0.625
vt 0.5 0.625
vt 0.8125 0.6875
vt 0.875 0.6875
vt 0.9375 0.6875
vt 1 0.6875
vt 0.5625 0.6875
vt 0.625 0.6875
vt 0.375 0.625
vt 0.8125 0.625
vt 0.875 0.625
vt 0.9375 0.625
vt 1 0.625
vt 0.5625 0.625
vt 0.625 0.625
vt 0.375 0.5625
vt 0.4375 0.5625
vt 0.5 0.5625
vt 0.5625 0.5625
vt 0.625 0.5625

# Normal
vn 0 0 -1

# Mesh description
g CastleOutDoors_mesh_0009

# Faces
f 1/1/1 2/2/1 3/3/1 4/4/1
f 5/5/1 6/6/1 7/7/1 8/8/1
f 9/1/1 10/2/1 11/3/1 12/4/1
f 13/5/1 14/6/1 15/7/1 16/8/1
f 17/1/1 18/2/1 19/3/1 20/4/1
f 21/5/1 22/6/1 23/7/1 24/8/1
f 25/1/1 26/2/1 27/3/1 28/4/1
f 29/5/1 30/6/1 31/7/1 32/8/1
f 33/1/1 34/2/1 35/3/1 36/4/1
f 37/5/1 38/6/1 39/7/1 40/8/1
f 41/9/1 42/10/1 43/2/1 44/1/1
f 45/11/1 46/9/1 47/1/1 48/12/1
f 49/11/1 50/9/1 51/1/1 52/12/1
f 53/11/1 54/9/1 55/1/1 56/12/1
f 57/13/1 58/14/1 59/15/1 60/16/1
f 61/11/1 62/9/1 63/1/1 64/12/1
f 65/11/1 66/9/1 67/1/1 68/12/1
f 69/11/1 70/9/1 71/1/1 72/12/1
f 73/11/1 74/9/1 75/1/1 76/12/1
f 77/11/1 78/9/1 79/1/1 80/12/1
f 81/17/1 82/18/1 83/6/1 84/5/1
f 85/19/1 86/20/1 87/10/1 88/9/1
f 89/20/1 90/21/1 91/22/1 92/10/1
f 93/20/1 94/21/1 95/22/1 96/10/1
f 97/20/1 98/21/1 99/22/1 100/10/1
f 101/23/1 102/24/1 103/25/1 104/26/1
f 105/24/1 106/27/1 107/28/1 108/25/1
f 109/27/1 110/29/1 111/30/1 112/28/1
f 113/20/1 114/21/1 115/22/1 116/10/1
f 117/20/1 118/21/1 119/22/1 120/10/1
f 121/20/1 122/21/1 123/22/1 124/10/1
f 125/31/1 126/32/1 127/18/1 128/17/1
f 129/33/1 130/34/1 131/20/1 132/19/1
f 133/34/1 134/35/1 135/21/1 136/20/1
f 137/36/1 138/37/1 139/35/1 140/34/1
f 141/36/1 142/37/1 143/35/1 144/34/1
f 145/38/1 146/39/1 147/24/1 148/23/1
f 149/39/1 150/40/1 151/27/1 152/24/1
f 153/40/1 154/41/1 155/29/1 156/27/1
f 157/36/1 158/37/1 159/35/1 160/34/1
f 161/34/1 162/35/1 163/21/1 164/20/1
f 165/36/1 166/37/1 167/35/1 168/34/1
f 169/42/1 170/43/1 171/32/1 172/31/1
f 173/44/1 174/36/1 175/34/1 176/33/1
f 177/36/1 178/37/1 179/35/1 180/34/1
f 181/36/1 182/37/1 183/35/1 184/34/1
f 185/34/1 186/35/1 187/21/1 188/20/1
f 189/45/1 190/46/1 191/39/1 192/38/1
f 193/46/1 194/47/1 195/40/1 196/39/1
f 197/47/1 198/48/1 199/41/1 200/40/1
f 201/36/1 202/37/1 203/35/1 204/34/1
f 205/36/1 206/37/1 207/35/1 208/34/1
f 209/34/1 210/35/1 211/21/1 212/20/1
f 213/49/1 214/50/1 215/43/1 216/42/1
f 217/51/1 218/52/1 219/36/1 220/44/1
f 221/52/1 222/53/1 223/37/1 224/36/1
f 225/52/1 226/53/1 227/37/1 228/36/1
f 229/52/1 230/53/1 231/37/1 232/36/1
f 233/52/1 234/53/1 235/37/1 236/36/1
f 237/52/1 238/53/1 239/37/1 240/36/1
f 241/52/1 242/53/1 243/37/1 244/36/1
f 245/54/1 246/55/1 247/50/1 248/49/1

