# Tiled2Unity generated file. Do not modify by hand.
# Wavefront file for 'CastleOutDoors_mesh_0010.obj'

# Vertices (Count = 200)
v -5.12 -2.24 0
v -5.44 -2.24 0
v -5.44 -1.92 0
v -5.12 -1.92 0
v -5.44 -2.24 0
v -5.76 -2.24 0
v -5.76 -1.92 0
v -5.44 -1.92 0
v -5.76 -2.24 0
v -6.08 -2.24 0
v -6.08 -1.92 0
v -5.76 -1.92 0
v -6.08 -2.24 0
v -6.4 -2.24 0
v -6.4 -1.92 0
v -6.08 -1.92 0
v -6.4 -2.24 0
v -6.72 -2.24 0
v -6.72 -1.92 0
v -6.4 -1.92 0
v -7.68 -2.24 0
v -8 -2.24 0
v -8 -1.92 0
v -7.68 -1.92 0
v -8 -2.24 0
v -8.32 -2.24 0
v -8.32 -1.92 0
v -8 -1.92 0
v -8.32 -2.24 0
v -8.639999 -2.24 0
v -8.639999 -1.92 0
v -8.32 -1.92 0
v -8.639999 -2.24 0
v -8.96 -2.24 0
v -8.96 -1.92 0
v -8.639999 -1.92 0
v -8.96 -2.24 0
v -9.28 -2.24 0
v -9.28 -1.92 0
v -8.96 -1.92 0
v -5.12 -2.56 0
v -5.44 -2.56 0
v -5.44 -2.24 0
v -5.12 -2.24 0
v -5.44 -2.56 0
v -5.76 -2.56 0
v -5.76 -2.24 0
v -5.44 -2.24 0
v -5.76 -2.56 0
v -6.08 -2.56 0
v -6.08 -2.24 0
v -5.76 -2.24 0
v -6.08 -2.56 0
v -6.4 -2.56 0
v -6.4 -2.24 0
v -6.08 -2.24 0
v -6.4 -2.56 0
v -6.72 -2.56 0
v -6.72 -2.24 0
v -6.4 -2.24 0
v -7.68 -2.56 0
v -8 -2.56 0
v -8 -2.24 0
v -7.68 -2.24 0
v -8 -2.56 0
v -8.32 -2.56 0
v -8.32 -2.24 0
v -8 -2.24 0
v -8.32 -2.56 0
v -8.639999 -2.56 0
v -8.639999 -2.24 0
v -8.32 -2.24 0
v -8.639999 -2.56 0
v -8.96 -2.56 0
v -8.96 -2.24 0
v -8.639999 -2.24 0
v -8.96 -2.56 0
v -9.28 -2.56 0
v -9.28 -2.24 0
v -8.96 -2.24 0
v -5.12 -2.88 0
v -5.44 -2.88 0
v -5.44 -2.56 0
v -5.12 -2.56 0
v -5.44 -2.88 0
v -5.76 -2.88 0
v -5.76 -2.56 0
v -5.44 -2.56 0
v -5.76 -2.88 0
v -6.08 -2.88 0
v -6.08 -2.56 0
v -5.76 -2.56 0
v -6.08 -2.88 0
v -6.4 -2.88 0
v -6.4 -2.56 0
v -6.08 -2.56 0
v -6.4 -2.88 0
v -6.72 -2.88 0
v -6.72 -2.56 0
v -6.4 -2.56 0
v -7.68 -2.88 0
v -8 -2.88 0
v -8 -2.56 0
v -7.68 -2.56 0
v -8 -2.88 0
v -8.32 -2.88 0
v -8.32 -2.56 0
v -8 -2.56 0
v -8.32 -2.88 0
v -8.639999 -2.88 0
v -8.639999 -2.56 0
v -8.32 -2.56 0
v -8.639999 -2.88 0
v -8.96 -2.88 0
v -8.96 -2.56 0
v -8.639999 -2.56 0
v -8.96 -2.88 0
v -9.28 -2.88 0
v -9.28 -2.56 0
v -8.96 -2.56 0
v -5.12 -3.2 0
v -5.44 -3.2 0
v -5.44 -2.88 0
v -5.12 -2.88 0
v -5.44 -3.2 0
v -5.76 -3.2 0
v -5.76 -2.88 0
v -5.44 -2.88 0
v -5.76 -3.2 0
v -6.08 -3.2 0
v -6.08 -2.88 0
v -5.76 -2.88 0
v -6.08 -3.2 0
v -6.4 -3.2 0
v -6.4 -2.88 0
v -6.08 -2.88 0
v -6.4 -3.2 0
v -6.72 -3.2 0
v -6.72 -2.88 0
v -6.4 -2.88 0
v -7.68 -3.2 0
v -8 -3.2 0
v -8 -2.88 0
v -7.68 -2.88 0
v -8 -3.2 0
v -8.32 -3.2 0
v -8.32 -2.88 0
v -8 -2.88 0
v -8.32 -3.2 0
v -8.639999 -3.2 0
v -8.639999 -2.88 0
v -8.32 -2.88 0
v -8.639999 -3.2 0
v -8.96 -3.2 0
v -8.96 -2.88 0
v -8.639999 -2.88 0
v -8.96 -3.2 0
v -9.28 -3.2 0
v -9.28 -2.88 0
v -8.96 -2.88 0
v -5.12 -3.52 0
v -5.44 -3.52 0
v -5.44 -3.2 0
v -5.12 -3.2 0
v -5.44 -3.52 0
v -5.76 -3.52 0
v -5.76 -3.2 0
v -5.44 -3.2 0
v -5.76 -3.52 0
v -6.08 -3.52 0
v -6.08 -3.2 0
v -5.76 -3.2 0
v -6.08 -3.52 0
v -6.4 -3.52 0
v -6.4 -3.2 0
v -6.08 -3.2 0
v -6.4 -3.52 0
v -6.72 -3.52 0
v -6.72 -3.2 0
v -6.4 -3.2 0
v -7.68 -3.52 0
v -8 -3.52 0
v -8 -3.2 0
v -7.68 -3.2 0
v -8 -3.52 0
v -8.32 -3.52 0
v -8.32 -3.2 0
v -8 -3.2 0
v -8.32 -3.52 0
v -8.639999 -3.52 0
v -8.639999 -3.2 0
v -8.32 -3.2 0
v -8.639999 -3.52 0
v -8.96 -3.52 0
v -8.96 -3.2 0
v -8.639999 -3.2 0
v -8.96 -3.52 0
v -9.28 -3.52 0
v -9.28 -3.2 0
v -8.96 -3.2 0

# Texture cooridinates (Count = 14)
vt 0.3125 0.8125
vt 0.375 0.8125
vt 0.375 0.875
vt 0.3125 0.875
vt 0.4375 0.75
vt 0.5 0.75
vt 0.5 0.8125
vt 0.4375 0.8125
vt 0.4375 0.6875
vt 0.5 0.6875
vt 0.4375 0.625
vt 0.5 0.625
vt 0.4375 0.5625
vt 0.5 0.5625

# Normal
vn 0 0 -1

# Mesh description
g CastleOutDoors_mesh_0010

# Faces
f 1/1/1 2/2/1 3/3/1 4/4/1
f 5/1/1 6/2/1 7/3/1 8/4/1
f 9/1/1 10/2/1 11/3/1 12/4/1
f 13/1/1 14/2/1 15/3/1 16/4/1
f 17/1/1 18/2/1 19/3/1 20/4/1
f 21/1/1 22/2/1 23/3/1 24/4/1
f 25/1/1 26/2/1 27/3/1 28/4/1
f 29/1/1 30/2/1 31/3/1 32/4/1
f 33/1/1 34/2/1 35/3/1 36/4/1
f 37/1/1 38/2/1 39/3/1 40/4/1
f 41/5/1 42/6/1 43/7/1 44/8/1
f 45/5/1 46/6/1 47/7/1 48/8/1
f 49/5/1 50/6/1 51/7/1 52/8/1
f 53/5/1 54/6/1 55/7/1 56/8/1
f 57/5/1 58/6/1 59/7/1 60/8/1
f 61/5/1 62/6/1 63/7/1 64/8/1
f 65/5/1 66/6/1 67/7/1 68/8/1
f 69/5/1 70/6/1 71/7/1 72/8/1
f 73/5/1 74/6/1 75/7/1 76/8/1
f 77/5/1 78/6/1 79/7/1 80/8/1
f 81/9/1 82/10/1 83/6/1 84/5/1
f 85/11/1 86/12/1 87/10/1 88/9/1
f 89/11/1 90/12/1 91/10/1 92/9/1
f 93/9/1 94/10/1 95/6/1 96/5/1
f 97/11/1 98/12/1 99/10/1 100/9/1
f 101/11/1 102/12/1 103/10/1 104/9/1
f 105/9/1 106/10/1 107/6/1 108/5/1
f 109/11/1 110/12/1 111/10/1 112/9/1
f 113/11/1 114/12/1 115/10/1 116/9/1
f 117/11/1 118/12/1 119/10/1 120/9/1
f 121/11/1 122/12/1 123/10/1 124/9/1
f 125/9/1 126/10/1 127/6/1 128/5/1
f 129/11/1 130/12/1 131/10/1 132/9/1
f 133/11/1 134/12/1 135/10/1 136/9/1
f 137/11/1 138/12/1 139/10/1 140/9/1
f 141/9/1 142/10/1 143/6/1 144/5/1
f 145/11/1 146/12/1 147/10/1 148/9/1
f 149/11/1 150/12/1 151/10/1 152/9/1
f 153/11/1 154/12/1 155/10/1 156/9/1
f 157/11/1 158/12/1 159/10/1 160/9/1
f 161/13/1 162/14/1 163/12/1 164/11/1
f 165/13/1 166/14/1 167/12/1 168/11/1
f 169/13/1 170/14/1 171/12/1 172/11/1
f 173/13/1 174/14/1 175/12/1 176/11/1
f 177/13/1 178/14/1 179/12/1 180/11/1
f 181/13/1 182/14/1 183/12/1 184/11/1
f 185/13/1 186/14/1 187/12/1 188/11/1
f 189/13/1 190/14/1 191/12/1 192/11/1
f 193/13/1 194/14/1 195/12/1 196/11/1
f 197/13/1 198/14/1 199/12/1 200/11/1

