# Tiled2Unity generated file. Do not modify by hand.
# Wavefront file for 'CastleOutDoors_mesh_0013.obj'

# Vertices (Count = 144)
v -4.8 -0.32 0
v -5.12 -0.32 0
v -5.12 0 0
v -4.8 0 0
v -5.12 -0.32 0
v -5.44 -0.32 0
v -5.44 0 0
v -5.12 0 0
v -6.4 -0.32 0
v -6.72 -0.32 0
v -6.72 0 0
v -6.4 0 0
v -6.72 -0.32 0
v -7.04 -0.32 0
v -7.04 0 0
v -6.72 0 0
v -7.04 -0.32 0
v -7.36 -0.32 0
v -7.36 0 0
v -7.04 0 0
v -7.36 -0.32 0
v -7.68 -0.32 0
v -7.68 0 0
v -7.36 0 0
v -7.68 -0.32 0
v -8 -0.32 0
v -8 0 0
v -7.68 0 0
v -8.96 -0.32 0
v -9.28 -0.32 0
v -9.28 0 0
v -8.96 0 0
v -9.28 -0.32 0
v -9.599999 -0.32 0
v -9.599999 0 0
v -9.28 0 0
v -4.8 -0.64 0
v -5.12 -0.64 0
v -5.12 -0.32 0
v -4.8 -0.32 0
v -5.12 -0.64 0
v -5.44 -0.64 0
v -5.44 -0.32 0
v -5.12 -0.32 0
v -6.4 -0.64 0
v -6.72 -0.64 0
v -6.72 -0.32 0
v -6.4 -0.32 0
v -6.72 -0.64 0
v -7.04 -0.64 0
v -7.04 -0.32 0
v -6.72 -0.32 0
v -7.04 -0.64 0
v -7.36 -0.64 0
v -7.36 -0.32 0
v -7.04 -0.32 0
v -7.36 -0.64 0
v -7.68 -0.64 0
v -7.68 -0.32 0
v -7.36 -0.32 0
v -7.68 -0.64 0
v -8 -0.64 0
v -8 -0.32 0
v -7.68 -0.32 0
v -8.96 -0.64 0
v -9.28 -0.64 0
v -9.28 -0.32 0
v -8.96 -0.32 0
v -9.28 -0.64 0
v -9.599999 -0.64 0
v -9.599999 -0.32 0
v -9.28 -0.32 0
v -4.8 -0.96 0
v -5.12 -0.96 0
v -5.12 -0.64 0
v -4.8 -0.64 0
v -5.12 -0.96 0
v -5.44 -0.96 0
v -5.44 -0.64 0
v -5.12 -0.64 0
v -6.4 -0.96 0
v -6.72 -0.96 0
v -6.72 -0.64 0
v -6.4 -0.64 0
v -6.72 -0.96 0
v -7.04 -0.96 0
v -7.04 -0.64 0
v -6.72 -0.64 0
v -7.04 -0.96 0
v -7.36 -0.96 0
v -7.36 -0.64 0
v -7.04 -0.64 0
v -7.36 -0.96 0
v -7.68 -0.96 0
v -7.68 -0.64 0
v -7.36 -0.64 0
v -7.68 -0.96 0
v -8 -0.96 0
v -8 -0.64 0
v -7.68 -0.64 0
v -8.96 -0.96 0
v -9.28 -0.96 0
v -9.28 -0.64 0
v -8.96 -0.64 0
v -9.28 -0.96 0
v -9.599999 -0.96 0
v -9.599999 -0.64 0
v -9.28 -0.64 0
v -4.8 -1.28 0
v -5.12 -1.28 0
v -5.12 -0.96 0
v -4.8 -0.96 0
v -5.12 -1.28 0
v -5.44 -1.28 0
v -5.44 -0.96 0
v -5.12 -0.96 0
v -6.4 -1.28 0
v -6.72 -1.28 0
v -6.72 -0.96 0
v -6.4 -0.96 0
v -6.72 -1.28 0
v -7.04 -1.28 0
v -7.04 -0.96 0
v -6.72 -0.96 0
v -7.04 -1.28 0
v -7.36 -1.28 0
v -7.36 -0.96 0
v -7.04 -0.96 0
v -7.36 -1.28 0
v -7.68 -1.28 0
v -7.68 -0.96 0
v -7.36 -0.96 0
v -7.68 -1.28 0
v -8 -1.28 0
v -8 -0.96 0
v -7.68 -0.96 0
v -8.96 -1.28 0
v -9.28 -1.28 0
v -9.28 -0.96 0
v -8.96 -0.96 0
v -9.28 -1.28 0
v -9.599999 -1.28 0
v -9.599999 -0.96 0
v -9.28 -0.96 0

# Texture cooridinates (Count = 10)
vt 0.4375 0.75
vt 0.5 0.75
vt 0.5 0.8125
vt 0.4375 0.8125
vt 0.4375 0.6875
vt 0.5 0.6875
vt 0.4375 0.625
vt 0.5 0.625
vt 0.4375 0.5625
vt 0.5 0.5625

# Normal
vn 0 0 -1

# Mesh description
g CastleOutDoors_mesh_0013

# Faces
f 1/1/1 2/2/1 3/3/1 4/4/1
f 5/1/1 6/2/1 7/3/1 8/4/1
f 9/1/1 10/2/1 11/3/1 12/4/1
f 13/1/1 14/2/1 15/3/1 16/4/1
f 17/1/1 18/2/1 19/3/1 20/4/1
f 21/1/1 22/2/1 23/3/1 24/4/1
f 25/1/1 26/2/1 27/3/1 28/4/1
f 29/1/1 30/2/1 31/3/1 32/4/1
f 33/1/1 34/2/1 35/3/1 36/4/1
f 37/5/1 38/6/1 39/2/1 40/1/1
f 41/7/1 42/8/1 43/6/1 44/5/1
f 45/7/1 46/8/1 47/6/1 48/5/1
f 49/5/1 50/6/1 51/2/1 52/1/1
f 53/7/1 54/8/1 55/6/1 56/5/1
f 57/7/1 58/8/1 59/6/1 60/5/1
f 61/5/1 62/6/1 63/2/1 64/1/1
f 65/7/1 66/8/1 67/6/1 68/5/1
f 69/7/1 70/8/1 71/6/1 72/5/1
f 73/7/1 74/8/1 75/6/1 76/5/1
f 77/7/1 78/8/1 79/6/1 80/5/1
f 81/7/1 82/8/1 83/6/1 84/5/1
f 85/7/1 86/8/1 87/6/1 88/5/1
f 89/7/1 90/8/1 91/6/1 92/5/1
f 93/5/1 94/6/1 95/2/1 96/1/1
f 97/7/1 98/8/1 99/6/1 100/5/1
f 101/5/1 102/6/1 103/2/1 104/1/1
f 105/7/1 106/8/1 107/6/1 108/5/1
f 109/9/1 110/10/1 111/8/1 112/7/1
f 113/9/1 114/10/1 115/8/1 116/7/1
f 117/9/1 118/10/1 119/8/1 120/7/1
f 121/9/1 122/10/1 123/8/1 124/7/1
f 125/9/1 126/10/1 127/8/1 128/7/1
f 129/9/1 130/10/1 131/8/1 132/7/1
f 133/9/1 134/10/1 135/8/1 136/7/1
f 137/9/1 138/10/1 139/8/1 140/7/1
f 141/9/1 142/10/1 143/8/1 144/7/1

