# Tiled2Unity generated file. Do not modify by hand.
# Wavefront file for 'CastleOutDoors_mesh_0014.obj'

# Vertices (Count = 52)
v -5.12 -0.96 0
v -5.44 -0.96 0
v -5.44 -0.64 0
v -5.12 -0.64 0
v -6.4 -0.96 0
v -6.72 -0.96 0
v -6.72 -0.64 0
v -6.4 -0.64 0
v -7.04 -0.96 0
v -7.36 -0.96 0
v -7.36 -0.64 0
v -7.04 -0.64 0
v -7.68 -0.96 0
v -8 -0.96 0
v -8 -0.64 0
v -7.68 -0.64 0
v -8.96 -0.96 0
v -9.28 -0.96 0
v -9.28 -0.64 0
v -8.96 -0.64 0
v -4.16 -2.56 0
v -4.48 -2.56 0
v -4.48 -2.24 0
v -4.16 -2.24 0
v -4.8 -2.56 0
v -5.12 -2.56 0
v -5.12 -2.24 0
v -4.8 -2.24 0
v -9.28 -2.56 0
v -9.599999 -2.56 0
v -9.599999 -2.24 0
v -9.28 -2.24 0
v -9.92 -2.56 0
v -10.24 -2.56 0
v -10.24 -2.24 0
v -9.92 -2.24 0
v -5.76 -2.88 0
v -6.08 -2.88 0
v -6.08 -2.56 0
v -5.76 -2.56 0
v -8.32 -2.88 0
v -8.639999 -2.88 0
v -8.639999 -2.56 0
v -8.32 -2.56 0
v -5.76 -3.2 0
v -6.08 -3.2 0
v -6.08 -2.88 0
v -5.76 -2.88 0
v -8.32 -3.2 0
v -8.639999 -3.2 0
v -8.639999 -2.88 0
v -8.32 -2.88 0

# Texture cooridinates (Count = 10)
vt 0.5625 0
vt 0.625 0
vt 0.625 0.0625
vt 0.5625 0.0625
vt 0.9375 0.1875
vt 1 0.1875
vt 1 0.25
vt 0.9375 0.25
vt 0.9375 0.125
vt 1 0.125

# Normal
vn 0 0 -1

# Mesh description
g CastleOutDoors_mesh_0014

# Faces
f 1/1/1 2/2/1 3/3/1 4/4/1
f 5/1/1 6/2/1 7/3/1 8/4/1
f 9/1/1 10/2/1 11/3/1 12/4/1
f 13/1/1 14/2/1 15/3/1 16/4/1
f 17/1/1 18/2/1 19/3/1 20/4/1
f 21/1/1 22/2/1 23/3/1 24/4/1
f 25/1/1 26/2/1 27/3/1 28/4/1
f 29/1/1 30/2/1 31/3/1 32/4/1
f 33/1/1 34/2/1 35/3/1 36/4/1
f 37/5/1 38/6/1 39/7/1 40/8/1
f 41/5/1 42/6/1 43/7/1 44/8/1
f 45/9/1 46/10/1 47/6/1 48/5/1
f 49/9/1 50/10/1 51/6/1 52/5/1

