# Tiled2Unity generated file. Do not modify by hand.
# Wavefront file for 'CastleOutDoors_mesh_0012.obj'

# Vertices (Count = 96)
v -5.44 -0.64 0
v -5.76 -0.64 0
v -5.76 -0.32 0
v -5.44 -0.32 0
v -5.76 -0.64 0
v -6.08 -0.64 0
v -6.08 -0.32 0
v -5.76 -0.32 0
v -6.08 -0.64 0
v -6.4 -0.64 0
v -6.4 -0.32 0
v -6.08 -0.32 0
v -8 -0.64 0
v -8.32 -0.64 0
v -8.32 -0.32 0
v -8 -0.32 0
v -8.32 -0.64 0
v -8.639999 -0.64 0
v -8.639999 -0.32 0
v -8.32 -0.32 0
v -8.639999 -0.64 0
v -8.96 -0.64 0
v -8.96 -0.32 0
v -8.639999 -0.32 0
v -5.44 -0.96 0
v -5.76 -0.96 0
v -5.76 -0.64 0
v -5.44 -0.64 0
v -5.76 -0.96 0
v -6.08 -0.96 0
v -6.08 -0.64 0
v -5.76 -0.64 0
v -6.08 -0.96 0
v -6.4 -0.96 0
v -6.4 -0.64 0
v -6.08 -0.64 0
v -8 -0.96 0
v -8.32 -0.96 0
v -8.32 -0.64 0
v -8 -0.64 0
v -8.32 -0.96 0
v -8.639999 -0.96 0
v -8.639999 -0.64 0
v -8.32 -0.64 0
v -8.639999 -0.96 0
v -8.96 -0.96 0
v -8.96 -0.64 0
v -8.639999 -0.64 0
v -5.44 -1.28 0
v -5.76 -1.28 0
v -5.76 -0.96 0
v -5.44 -0.96 0
v -5.76 -1.28 0
v -6.08 -1.28 0
v -6.08 -0.96 0
v -5.76 -0.96 0
v -6.08 -1.28 0
v -6.4 -1.28 0
v -6.4 -0.96 0
v -6.08 -0.96 0
v -8 -1.28 0
v -8.32 -1.28 0
v -8.32 -0.96 0
v -8 -0.96 0
v -8.32 -1.28 0
v -8.639999 -1.28 0
v -8.639999 -0.96 0
v -8.32 -0.96 0
v -8.639999 -1.28 0
v -8.96 -1.28 0
v -8.96 -0.96 0
v -8.639999 -0.96 0
v -5.44 -1.6 0
v -5.76 -1.6 0
v -5.76 -1.28 0
v -5.44 -1.28 0
v -5.76 -1.6 0
v -6.08 -1.6 0
v -6.08 -1.28 0
v -5.76 -1.28 0
v -6.08 -1.6 0
v -6.4 -1.6 0
v -6.4 -1.28 0
v -6.08 -1.28 0
v -8 -1.6 0
v -8.32 -1.6 0
v -8.32 -1.28 0
v -8 -1.28 0
v -8.32 -1.6 0
v -8.639999 -1.6 0
v -8.639999 -1.28 0
v -8.32 -1.28 0
v -8.639999 -1.6 0
v -8.96 -1.6 0
v -8.96 -1.28 0
v -8.639999 -1.28 0

# Texture cooridinates (Count = 16)
vt 0.3125 0.8125
vt 0.375 0.8125
vt 0.375 0.875
vt 0.3125 0.875
vt 0.0625 0.75
vt 0.125 0.75
vt 0.125 0.8125
vt 0.0625 0.8125
vt 0.1875 0.75
vt 0.1875 0.8125
vt 0.0625 0.6875
vt 0.125 0.6875
vt 0.1875 0.6875
vt 0.0625 0.625
vt 0.125 0.625
vt 0.1875 0.625

# Normal
vn 0 0 -1

# Mesh description
g CastleOutDoors_mesh_0012

# Faces
f 1/1/1 2/2/1 3/3/1 4/4/1
f 5/1/1 6/2/1 7/3/1 8/4/1
f 9/1/1 10/2/1 11/3/1 12/4/1
f 13/1/1 14/2/1 15/3/1 16/4/1
f 17/1/1 18/2/1 19/3/1 20/4/1
f 21/1/1 22/2/1 23/3/1 24/4/1
f 25/5/1 26/6/1 27/7/1 28/8/1
f 29/6/1 30/9/1 31/10/1 32/7/1
f 33/6/1 34/5/1 35/8/1 36/7/1
f 37/5/1 38/6/1 39/7/1 40/8/1
f 41/6/1 42/9/1 43/10/1 44/7/1
f 45/6/1 46/5/1 47/8/1 48/7/1
f 49/11/1 50/12/1 51/6/1 52/5/1
f 53/12/1 54/13/1 55/9/1 56/6/1
f 57/12/1 58/11/1 59/5/1 60/6/1
f 61/11/1 62/12/1 63/6/1 64/5/1
f 65/12/1 66/13/1 67/9/1 68/6/1
f 69/12/1 70/11/1 71/5/1 72/6/1
f 73/14/1 74/15/1 75/12/1 76/11/1
f 77/15/1 78/16/1 79/13/1 80/12/1
f 81/15/1 82/14/1 83/11/1 84/12/1
f 85/14/1 86/15/1 87/12/1 88/11/1
f 89/15/1 90/16/1 91/13/1 92/12/1
f 93/15/1 94/14/1 95/11/1 96/12/1

