# Tiled2Unity generated file. Do not modify by hand.
# Wavefront file for 'CastleOutDoors_mesh_0006.obj'

# Vertices (Count = 132)
v -11.52 -5.12 0
v -11.84 -5.12 0
v -11.84 -4.8 0
v -11.52 -4.8 0
v -11.84 -5.12 0
v -12.16 -5.12 0
v -12.16 -4.8 0
v -11.84 -4.8 0
v -12.16 -5.12 0
v -12.48 -5.12 0
v -12.48 -4.8 0
v -12.16 -4.8 0
v -12.48 -5.12 0
v -12.8 -5.12 0
v -12.8 -4.8 0
v -12.48 -4.8 0
v -11.52 -5.44 0
v -11.84 -5.44 0
v -11.84 -5.12 0
v -11.52 -5.12 0
v -11.84 -5.44 0
v -12.16 -5.44 0
v -12.16 -5.12 0
v -11.84 -5.12 0
v -12.16 -5.44 0
v -12.48 -5.44 0
v -12.48 -5.12 0
v -12.16 -5.12 0
v -12.48 -5.44 0
v -12.8 -5.44 0
v -12.8 -5.12 0
v -12.48 -5.12 0
v -11.2 -5.76 0
v -11.52 -5.76 0
v -11.52 -5.44 0
v -11.2 -5.44 0
v -11.52 -5.76 0
v -11.84 -5.76 0
v -11.84 -5.44 0
v -11.52 -5.44 0
v -11.84 -5.76 0
v -12.16 -5.76 0
v -12.16 -5.44 0
v -11.84 -5.44 0
v -12.16 -5.76 0
v -12.48 -5.76 0
v -12.48 -5.44 0
v -12.16 -5.44 0
v -12.48 -5.76 0
v -12.8 -5.76 0
v -12.8 -5.44 0
v -12.48 -5.44 0
v -11.52 -6.08 0
v -11.84 -6.08 0
v -11.84 -5.76 0
v -11.52 -5.76 0
v -11.84 -6.08 0
v -12.16 -6.08 0
v -12.16 -5.76 0
v -11.84 -5.76 0
v -12.16 -6.08 0
v -12.48 -6.08 0
v -12.48 -5.76 0
v -12.16 -5.76 0
v -12.48 -6.08 0
v -12.8 -6.08 0
v -12.8 -5.76 0
v -12.48 -5.76 0
v -4.8 -11.52 0
v -5.12 -11.52 0
v -5.12 -11.2 0
v -4.8 -11.2 0
v -5.12 -11.52 0
v -5.44 -11.52 0
v -5.44 -11.2 0
v -5.12 -11.2 0
v -5.44 -11.52 0
v -5.76 -11.52 0
v -5.76 -11.2 0
v -5.44 -11.2 0
v -4.48 -11.84 0
v -4.8 -11.84 0
v -4.8 -11.52 0
v -4.48 -11.52 0
v -4.8 -11.84 0
v -5.12 -11.84 0
v -5.12 -11.52 0
v -4.8 -11.52 0
v -5.12 -11.84 0
v -5.44 -11.84 0
v -5.44 -11.52 0
v -5.12 -11.52 0
v -5.44 -11.84 0
v -5.76 -11.84 0
v -5.76 -11.52 0
v -5.44 -11.52 0
v -5.76 -11.84 0
v -6.08 -11.84 0
v -6.08 -11.52 0
v -5.76 -11.52 0
v -4.48 -12.16 0
v -4.8 -12.16 0
v -4.8 -11.84 0
v -4.48 -11.84 0
v -4.8 -12.16 0
v -5.12 -12.16 0
v -5.12 -11.84 0
v -4.8 -11.84 0
v -5.12 -12.16 0
v -5.44 -12.16 0
v -5.44 -11.84 0
v -5.12 -11.84 0
v -5.44 -12.16 0
v -5.76 -12.16 0
v -5.76 -11.84 0
v -5.44 -11.84 0
v -5.76 -12.16 0
v -6.08 -12.16 0
v -6.08 -11.84 0
v -5.76 -11.84 0
v -4.8 -12.48 0
v -5.12 -12.48 0
v -5.12 -12.16 0
v -4.8 -12.16 0
v -5.12 -12.48 0
v -5.44 -12.48 0
v -5.44 -12.16 0
v -5.12 -12.16 0
v -5.44 -12.48 0
v -5.76 -12.48 0
v -5.76 -12.16 0
v -5.44 -12.16 0

# Texture cooridinates (Count = 49)
vt 0.75 0.75
vt 0.8125 0.75
vt 0.8125 0.8125
vt 0.75 0.8125
vt 0.875 0.75
vt 0.875 0.8125
vt 0.75 0.6875
vt 0.8125 0.6875
vt 0.875 0.6875
vt 0.75 0.3125
vt 0.8125 0.3125
vt 0.8125 0.375
vt 0.75 0.375
vt 0.9375 0.75
vt 0.9375 0.8125
vt 1 0.75
vt 1 0.8125
vt 0.875 0.625
vt 0.9375 0.625
vt 0.9375 0.6875
vt 1 0.625
vt 1 0.6875
vt 0.875 0.5625
vt 0.9375 0.5625
vt 1 0.5625
vt 0.8125 0.5
vt 0.875 0.5
vt 0.8125 0.5625
vt 0.9375 0.5
vt 1 0.5
vt 0.375 0.375
vt 0.4375 0.375
vt 0.4375 0.4375
vt 0.375 0.4375
vt 0.8125 0.4375
vt 0.875 0.4375
vt 0.9375 0.4375
vt 1 0.4375
vt 0.5 0.375
vt 0.5 0.4375
vt 0.375 0.3125
vt 0.4375 0.3125
vt 0.875 0.375
vt 0.9375 0.375
vt 1 0.375
vt 0.5 0.3125
vt 0.875 0.3125
vt 0.9375 0.3125
vt 1 0.3125

# Normal
vn 0 0 -1

# Mesh description
g CastleOutDoors_mesh_0006

# Faces
f 1/1/1 2/2/1 3/3/1 4/4/1
f 5/2/1 6/5/1 7/6/1 8/3/1
f 9/1/1 10/2/1 11/3/1 12/4/1
f 13/2/1 14/5/1 15/6/1 16/3/1
f 17/7/1 18/8/1 19/2/1 20/1/1
f 21/8/1 22/9/1 23/5/1 24/2/1
f 25/7/1 26/8/1 27/2/1 28/1/1
f 29/8/1 30/9/1 31/5/1 32/2/1
f 33/10/1 34/11/1 35/12/1 36/13/1
f 37/5/1 38/14/1 39/15/1 40/6/1
f 41/14/1 42/16/1 43/17/1 44/15/1
f 45/18/1 46/19/1 47/20/1 48/9/1
f 49/19/1 50/21/1 51/22/1 52/20/1
f 53/9/1 54/20/1 55/14/1 56/5/1
f 57/20/1 58/22/1 59/16/1 60/14/1
f 61/23/1 62/24/1 63/19/1 64/18/1
f 65/24/1 66/25/1 67/21/1 68/19/1
f 69/26/1 70/27/1 71/23/1 72/28/1
f 73/27/1 74/29/1 75/24/1 76/23/1
f 77/29/1 78/30/1 79/25/1 80/24/1
f 81/31/1 82/32/1 83/33/1 84/34/1
f 85/35/1 86/36/1 87/27/1 88/26/1
f 89/36/1 90/37/1 91/29/1 92/27/1
f 93/37/1 94/38/1 95/30/1 96/29/1
f 97/32/1 98/39/1 99/40/1 100/33/1
f 101/41/1 102/42/1 103/32/1 104/31/1
f 105/12/1 106/43/1 107/36/1 108/35/1
f 109/43/1 110/44/1 111/37/1 112/36/1
f 113/44/1 114/45/1 115/38/1 116/37/1
f 117/42/1 118/46/1 119/39/1 120/32/1
f 121/11/1 122/47/1 123/43/1 124/12/1
f 125/47/1 126/48/1 127/44/1 128/43/1
f 129/48/1 130/49/1 131/45/1 132/44/1

