# Tiled2Unity generated file. Do not modify by hand.
# Wavefront file for 'ForestBM_mesh_0002.obj'

# Vertices (Count = 184)
v -0.64 -0.32 0
v -0.96 -0.32 0
v -0.96 0 0
v -0.64 0 0
v -0.96 -0.32 0
v -1.28 -0.32 0
v -1.28 0 0
v -0.96 0 0
v -1.28 -0.32 0
v -1.6 -0.32 0
v -1.6 0 0
v -1.28 0 0
v -6.08 -0.32 0
v -6.4 -0.32 0
v -6.4 0 0
v -6.08 0 0
v -0.64 -0.64 0
v -0.96 -0.64 0
v -0.96 -0.32 0
v -0.64 -0.32 0
v -0.96 -0.64 0
v -1.28 -0.64 0
v -1.28 -0.32 0
v -0.96 -0.32 0
v -1.28 -0.64 0
v -1.6 -0.64 0
v -1.6 -0.32 0
v -1.28 -0.32 0
v -2.56 -0.64 0
v -2.88 -0.64 0
v -2.88 -0.32 0
v -2.56 -0.32 0
v -3.84 -0.64 0
v -4.16 -0.64 0
v -4.16 -0.32 0
v -3.84 -0.32 0
v -5.76 -0.64 0
v -6.08 -0.64 0
v -6.08 -0.32 0
v -5.76 -0.32 0
v -6.08 -0.64 0
v -6.4 -0.64 0
v -6.4 -0.32 0
v -6.08 -0.32 0
v -6.4 -0.64 0
v -6.72 -0.64 0
v -6.72 -0.32 0
v -6.4 -0.32 0
v -2.24 -0.96 0
v -2.56 -0.96 0
v -2.56 -0.64 0
v -2.24 -0.64 0
v -2.56 -0.96 0
v -2.88 -0.96 0
v -2.88 -0.64 0
v -2.56 -0.64 0
v -2.88 -0.96 0
v -3.2 -0.96 0
v -3.2 -0.64 0
v -2.88 -0.64 0
v -3.52 -0.96 0
v -3.84 -0.96 0
v -3.84 -0.64 0
v -3.52 -0.64 0
v -3.84 -0.96 0
v -4.16 -0.96 0
v -4.16 -0.64 0
v -3.84 -0.64 0
v -4.16 -0.96 0
v -4.48 -0.96 0
v -4.48 -0.64 0
v -4.16 -0.64 0
v -5.76 -0.96 0
v -6.08 -0.96 0
v -6.08 -0.64 0
v -5.76 -0.64 0
v -6.08 -0.96 0
v -6.4 -0.96 0
v -6.4 -0.64 0
v -6.08 -0.64 0
v -6.4 -0.96 0
v -6.72 -0.96 0
v -6.72 -0.64 0
v -6.4 -0.64 0
v -2.24 -1.28 0
v -2.56 -1.28 0
v -2.56 -0.96 0
v -2.24 -0.96 0
v -2.56 -1.28 0
v -2.88 -1.28 0
v -2.88 -0.96 0
v -2.56 -0.96 0
v -2.88 -1.28 0
v -3.2 -1.28 0
v -3.2 -0.96 0
v -2.88 -0.96 0
v -3.52 -1.28 0
v -3.84 -1.28 0
v -3.84 -0.96 0
v -3.52 -0.96 0
v -3.84 -1.28 0
v -4.16 -1.28 0
v -4.16 -0.96 0
v -3.84 -0.96 0
v -4.16 -1.28 0
v -4.48 -1.28 0
v -4.48 -0.96 0
v -4.16 -0.96 0
v -2.88 -3.84 0
v -3.2 -3.84 0
v -3.2 -3.52 0
v -2.88 -3.52 0
v -0.64 -4.16 0
v -0.96 -4.16 0
v -0.96 -3.84 0
v -0.64 -3.84 0
v -2.56 -4.16 0
v -2.88 -4.16 0
v -2.88 -3.84 0
v -2.56 -3.84 0
v -2.88 -4.16 0
v -3.2 -4.16 0
v -3.2 -3.84 0
v -2.88 -3.84 0
v -3.2 -4.16 0
v -3.52 -4.16 0
v -3.52 -3.84 0
v -3.2 -3.84 0
v -6.72 -4.16 0
v -7.04 -4.16 0
v -7.04 -3.84 0
v -6.72 -3.84 0
v -0.32 -4.48 0
v -0.64 -4.48 0
v -0.64 -4.16 0
v -0.32 -4.16 0
v -0.64 -4.48 0
v -0.96 -4.48 0
v -0.96 -4.16 0
v -0.64 -4.16 0
v -0.96 -4.48 0
v -1.28 -4.48 0
v -1.28 -4.16 0
v -0.96 -4.16 0
v -2.56 -4.48 0
v -2.88 -4.48 0
v -2.88 -4.16 0
v -2.56 -4.16 0
v -2.88 -4.48 0
v -3.2 -4.48 0
v -3.2 -4.16 0
v -2.88 -4.16 0
v -3.2 -4.48 0
v -3.52 -4.48 0
v -3.52 -4.16 0
v -3.2 -4.16 0
v -6.72 -4.48 0
v -7.04 -4.48 0
v -7.04 -4.16 0
v -6.72 -4.16 0
v -0.32 -4.8 0
v -0.64 -4.8 0
v -0.64 -4.48 0
v -0.32 -4.48 0
v -0.64 -4.8 0
v -0.96 -4.8 0
v -0.96 -4.48 0
v -0.64 -4.48 0
v -0.96 -4.8 0
v -1.28 -4.8 0
v -1.28 -4.48 0
v -0.96 -4.48 0
v -6.4 -4.8 0
v -6.72 -4.8 0
v -6.72 -4.48 0
v -6.4 -4.48 0
v -6.72 -4.8 0
v -7.04 -4.8 0
v -7.04 -4.48 0
v -6.72 -4.48 0
v -7.04 -4.8 0
v -7.36 -4.8 0
v -7.36 -4.48 0
v -7.04 -4.48 0

# Texture cooridinates (Count = 52)
vt 0.8759191 0.3759191
vt 0.9053309 0.3759191
vt 0.9053309 0.4053309
vt 0.8759191 0.4053309
vt 0.9071691 0.3759191
vt 0.9365809 0.3759191
vt 0.9365809 0.4053309
vt 0.9071691 0.4053309
vt 0.9384191 0.3759191
vt 0.9678309 0.3759191
vt 0.9678309 0.4053309
vt 0.9384191 0.4053309
vt 0.7509191 0.4071691
vt 0.7803309 0.4071691
vt 0.7803309 0.4365809
vt 0.7509191 0.4365809
vt 0.8759191 0.3446691
vt 0.9053309 0.3446691
vt 0.9053309 0.3740809
vt 0.8759191 0.3740809
vt 0.9071691 0.3446691
vt 0.9365809 0.3446691
vt 0.9365809 0.3740809
vt 0.9071691 0.3740809
vt 0.9384191 0.3446691
vt 0.9678309 0.3446691
vt 0.9678309 0.3740809
vt 0.9384191 0.3740809
vt 0.7821691 0.3759191
vt 0.8115809 0.3759191
vt 0.8115809 0.4053309
vt 0.7821691 0.4053309
vt 0.8134191 0.3759191
vt 0.8428309 0.3759191
vt 0.8428309 0.4053309
vt 0.8134191 0.4053309
vt 0.8446691 0.3759191
vt 0.8740809 0.3759191
vt 0.8740809 0.4053309
vt 0.8446691 0.4053309
vt 0.7821691 0.3446691
vt 0.8115809 0.3446691
vt 0.8115809 0.3740809
vt 0.7821691 0.3740809
vt 0.8134191 0.3446691
vt 0.8428309 0.3446691
vt 0.8428309 0.3740809
vt 0.8134191 0.3740809
vt 0.8446691 0.3446691
vt 0.8740809 0.3446691
vt 0.8740809 0.3740809
vt 0.8446691 0.3740809

# Normal
vn 0 0 -1

# Mesh description
g ForestBM_mesh_0002

# Faces
f 1/1/1 2/2/1 3/3/1 4/4/1
f 5/5/1 6/6/1 7/7/1 8/8/1
f 9/9/1 10/10/1 11/11/1 12/12/1
f 13/13/1 14/14/1 15/15/1 16/16/1
f 17/17/1 18/18/1 19/19/1 20/20/1
f 21/21/1 22/22/1 23/23/1 24/24/1
f 25/25/1 26/26/1 27/27/1 28/28/1
f 29/13/1 30/14/1 31/15/1 32/16/1
f 33/13/1 34/14/1 35/15/1 36/16/1
f 37/1/1 38/2/1 39/3/1 40/4/1
f 41/5/1 42/6/1 43/7/1 44/8/1
f 45/9/1 46/10/1 47/11/1 48/12/1
f 49/1/1 50/2/1 51/3/1 52/4/1
f 53/5/1 54/6/1 55/7/1 56/8/1
f 57/9/1 58/10/1 59/11/1 60/12/1
f 61/29/1 62/30/1 63/31/1 64/32/1
f 65/33/1 66/34/1 67/35/1 68/36/1
f 69/37/1 70/38/1 71/39/1 72/40/1
f 73/17/1 74/18/1 75/19/1 76/20/1
f 77/21/1 78/22/1 79/23/1 80/24/1
f 81/25/1 82/26/1 83/27/1 84/28/1
f 85/17/1 86/18/1 87/19/1 88/20/1
f 89/21/1 90/22/1 91/23/1 92/24/1
f 93/25/1 94/26/1 95/27/1 96/28/1
f 97/41/1 98/42/1 99/43/1 100/44/1
f 101/45/1 102/46/1 103/47/1 104/48/1
f 105/49/1 106/50/1 107/51/1 108/52/1
f 109/13/1 110/14/1 111/15/1 112/16/1
f 113/13/1 114/14/1 115/15/1 116/16/1
f 117/29/1 118/30/1 119/31/1 120/32/1
f 121/33/1 122/34/1 123/35/1 124/36/1
f 125/37/1 126/38/1 127/39/1 128/40/1
f 129/13/1 130/14/1 131/15/1 132/16/1
f 133/29/1 134/30/1 135/31/1 136/32/1
f 137/33/1 138/34/1 139/35/1 140/36/1
f 141/37/1 142/38/1 143/39/1 144/40/1
f 145/41/1 146/42/1 147/43/1 148/44/1
f 149/45/1 150/46/1 151/47/1 152/48/1
f 153/49/1 154/50/1 155/51/1 156/52/1
f 157/13/1 158/14/1 159/15/1 160/16/1
f 161/41/1 162/42/1 163/43/1 164/44/1
f 165/45/1 166/46/1 167/47/1 168/48/1
f 169/49/1 170/50/1 171/51/1 172/52/1
f 173/1/1 174/2/1 175/3/1 176/4/1
f 177/5/1 178/6/1 179/7/1 180/8/1
f 181/9/1 182/10/1 183/11/1 184/12/1

