# Tiled2Unity generated file. Do not modify by hand.
# Wavefront file for 'Cemetery_mesh_0005.obj'

# Vertices (Count = 72)
v -7.68 -0.64 0
v -8 -0.64 0
v -8 -0.32 0
v -7.68 -0.32 0
v -8 -0.64 0
v -8.32 -0.64 0
v -8.32 -0.32 0
v -8 -0.32 0
v -1.28 -0.96 0
v -1.6 -0.96 0
v -1.6 -0.64 0
v -1.28 -0.64 0
v -1.6 -0.96 0
v -1.92 -0.96 0
v -1.92 -0.64 0
v -1.6 -0.64 0
v -3.84 -1.6 0
v -4.16 -1.6 0
v -4.16 -1.28 0
v -3.84 -1.28 0
v -5.44 -1.6 0
v -5.76 -1.6 0
v -5.76 -1.28 0
v -5.44 -1.28 0
v -3.84 -1.92 0
v -4.16 -1.92 0
v -4.16 -1.6 0
v -3.84 -1.6 0
v -5.44 -1.92 0
v -5.76 -1.92 0
v -5.76 -1.6 0
v -5.44 -1.6 0
v -3.84 -2.24 0
v -4.16 -2.24 0
v -4.16 -1.92 0
v -3.84 -1.92 0
v -5.44 -2.24 0
v -5.76 -2.24 0
v -5.76 -1.92 0
v -5.44 -1.92 0
v -0.96 -3.84 0
v -1.28 -3.84 0
v -1.28 -3.52 0
v -0.96 -3.52 0
v -2.56 -3.84 0
v -2.88 -3.84 0
v -2.88 -3.52 0
v -2.56 -3.52 0
v -6.4 -3.84 0
v -6.72 -3.84 0
v -6.72 -3.52 0
v -6.4 -3.52 0
v -8 -3.84 0
v -8.32 -3.84 0
v -8.32 -3.52 0
v -8 -3.52 0
v -0.96 -6.08 0
v -1.28 -6.08 0
v -1.28 -5.76 0
v -0.96 -5.76 0
v -2.56 -6.08 0
v -2.88 -6.08 0
v -2.88 -5.76 0
v -2.56 -5.76 0
v -6.4 -6.08 0
v -6.72 -6.08 0
v -6.72 -5.76 0
v -6.4 -5.76 0
v -8 -6.08 0
v -8.32 -6.08 0
v -8.32 -5.76 0
v -8 -5.76 0

# Texture cooridinates (Count = 44)
vt 0.8446691 0.1571691
vt 0.8740809 0.1571691
vt 0.8740809 0.1865809
vt 0.8446691 0.1865809
vt 0.8759191 0.1571691
vt 0.9053309 0.1571691
vt 0.9053309 0.1865809
vt 0.8759191 0.1865809
vt 0.8446691 0.2509191
vt 0.8740809 0.2509191
vt 0.8740809 0.2803309
vt 0.8446691 0.2803309
vt 0.8759191 0.2509191
vt 0.9053309 0.2509191
vt 0.9053309 0.2803309
vt 0.8759191 0.2803309
vt 0.6259191 0.5946691
vt 0.6553309 0.5946691
vt 0.6553309 0.6240809
vt 0.6259191 0.6240809
vt 0.6259191 0.5009191
vt 0.6553309 0.5009191
vt 0.6553309 0.5303309
vt 0.6259191 0.5303309
vt 0.6259191 0.5634191
vt 0.6553309 0.5634191
vt 0.6553309 0.5928309
vt 0.6259191 0.5928309
vt 0.6259191 0.4696691
vt 0.6553309 0.4696691
vt 0.6553309 0.4990809
vt 0.6259191 0.4990809
vt 0.5946691 0.4696691
vt 0.6240809 0.4696691
vt 0.6240809 0.4990809
vt 0.5946691 0.4990809
vt 0.4696691 0.3134191
vt 0.4990809 0.3134191
vt 0.4990809 0.3428309
vt 0.4696691 0.3428309
vt 0.4384191 0.3134191
vt 0.4678309 0.3134191
vt 0.4678309 0.3428309
vt 0.4384191 0.3428309

# Normal
vn 0 0 -1

# Mesh description
g Cemetery_mesh_0005

# Faces
f 1/1/1 2/2/1 3/3/1 4/4/1
f 5/5/1 6/6/1 7/7/1 8/8/1
f 9/9/1 10/10/1 11/11/1 12/12/1
f 13/13/1 14/14/1 15/15/1 16/16/1
f 17/17/1 18/18/1 19/19/1 20/20/1
f 21/21/1 22/22/1 23/23/1 24/24/1
f 25/25/1 26/26/1 27/27/1 28/28/1
f 29/29/1 30/30/1 31/31/1 32/32/1
f 33/33/1 34/34/1 35/35/1 36/36/1
f 37/33/1 38/34/1 39/35/1 40/36/1
f 41/37/1 42/38/1 43/39/1 44/40/1
f 45/41/1 46/42/1 47/43/1 48/44/1
f 49/37/1 50/38/1 51/39/1 52/40/1
f 53/37/1 54/38/1 55/39/1 56/40/1
f 57/37/1 58/38/1 59/39/1 60/40/1
f 61/37/1 62/38/1 63/39/1 64/40/1
f 65/41/1 66/42/1 67/43/1 68/44/1
f 69/37/1 70/38/1 71/39/1 72/40/1

