# Tiled2Unity generated file. Do not modify by hand.
# Wavefront file for 'CastleOutDoors_mesh_0015.obj'

# Vertices (Count = 576)
v -1.6 -4.8 0
v -1.92 -4.8 0
v -1.92 -4.48 0
v -1.6 -4.48 0
v -1.92 -4.8 0
v -2.24 -4.8 0
v -2.24 -4.48 0
v -1.92 -4.48 0
v -2.24 -4.8 0
v -2.56 -4.8 0
v -2.56 -4.48 0
v -2.24 -4.48 0
v -2.56 -4.8 0
v -2.88 -4.8 0
v -2.88 -4.48 0
v -2.56 -4.48 0
v -2.88 -4.8 0
v -3.2 -4.8 0
v -3.2 -4.48 0
v -2.88 -4.48 0
v -1.6 -5.12 0
v -1.92 -5.12 0
v -1.92 -4.8 0
v -1.6 -4.8 0
v -1.92 -5.12 0
v -2.24 -5.12 0
v -2.24 -4.8 0
v -1.92 -4.8 0
v -2.24 -5.12 0
v -2.56 -5.12 0
v -2.56 -4.8 0
v -2.24 -4.8 0
v -2.56 -5.12 0
v -2.88 -5.12 0
v -2.88 -4.8 0
v -2.56 -4.8 0
v -2.88 -5.12 0
v -3.2 -5.12 0
v -3.2 -4.8 0
v -2.88 -4.8 0
v -4.16 -5.12 0
v -4.48 -5.12 0
v -4.48 -4.8 0
v -4.16 -4.8 0
v -4.48 -5.12 0
v -4.8 -5.12 0
v -4.8 -4.8 0
v -4.48 -4.8 0
v -4.8 -5.12 0
v -5.12 -5.12 0
v -5.12 -4.8 0
v -4.8 -4.8 0
v -5.12 -5.12 0
v -5.44 -5.12 0
v -5.44 -4.8 0
v -5.12 -4.8 0
v -5.44 -5.12 0
v -5.76 -5.12 0
v -5.76 -4.8 0
v -5.44 -4.8 0
v -5.76 -5.12 0
v -6.08 -5.12 0
v -6.08 -4.8 0
v -5.76 -4.8 0
v -8.639999 -5.12 0
v -8.96 -5.12 0
v -8.96 -4.8 0
v -8.639999 -4.8 0
v -8.96 -5.12 0
v -9.28 -5.12 0
v -9.28 -4.8 0
v -8.96 -4.8 0
v -9.28 -5.12 0
v -9.599999 -5.12 0
v -9.599999 -4.8 0
v -9.28 -4.8 0
v -9.599999 -5.12 0
v -9.92 -5.12 0
v -9.92 -4.8 0
v -9.599999 -4.8 0
v -9.92 -5.12 0
v -10.24 -5.12 0
v -10.24 -4.8 0
v -9.92 -4.8 0
v -1.6 -5.44 0
v -1.92 -5.44 0
v -1.92 -5.12 0
v -1.6 -5.12 0
v -1.92 -5.44 0
v -2.24 -5.44 0
v -2.24 -5.12 0
v -1.92 -5.12 0
v -2.24 -5.44 0
v -2.56 -5.44 0
v -2.56 -5.12 0
v -2.24 -5.12 0
v -2.56 -5.44 0
v -2.88 -5.44 0
v -2.88 -5.12 0
v -2.56 -5.12 0
v -2.88 -5.44 0
v -3.2 -5.44 0
v -3.2 -5.12 0
v -2.88 -5.12 0
v -4.16 -5.44 0
v -4.48 -5.44 0
v -4.48 -5.12 0
v -4.16 -5.12 0
v -4.48 -5.44 0
v -4.8 -5.44 0
v -4.8 -5.12 0
v -4.48 -5.12 0
v -4.8 -5.44 0
v -5.12 -5.44 0
v -5.12 -5.12 0
v -4.8 -5.12 0
v -5.12 -5.44 0
v -5.44 -5.44 0
v -5.44 -5.12 0
v -5.12 -5.12 0
v -5.44 -5.44 0
v -5.76 -5.44 0
v -5.76 -5.12 0
v -5.44 -5.12 0
v -5.76 -5.44 0
v -6.08 -5.44 0
v -6.08 -5.12 0
v -5.76 -5.12 0
v -8.639999 -5.44 0
v -8.96 -5.44 0
v -8.96 -5.12 0
v -8.639999 -5.12 0
v -8.96 -5.44 0
v -9.28 -5.44 0
v -9.28 -5.12 0
v -8.96 -5.12 0
v -9.28 -5.44 0
v -9.599999 -5.44 0
v -9.599999 -5.12 0
v -9.28 -5.12 0
v -9.599999 -5.44 0
v -9.92 -5.44 0
v -9.92 -5.12 0
v -9.599999 -5.12 0
v -9.92 -5.44 0
v -10.24 -5.44 0
v -10.24 -5.12 0
v -9.92 -5.12 0
v -1.6 -5.76 0
v -1.92 -5.76 0
v -1.92 -5.44 0
v -1.6 -5.44 0
v -1.92 -5.76 0
v -2.24 -5.76 0
v -2.24 -5.44 0
v -1.92 -5.44 0
v -2.24 -5.76 0
v -2.56 -5.76 0
v -2.56 -5.44 0
v -2.24 -5.44 0
v -2.56 -5.76 0
v -2.88 -5.76 0
v -2.88 -5.44 0
v -2.56 -5.44 0
v -2.88 -5.76 0
v -3.2 -5.76 0
v -3.2 -5.44 0
v -2.88 -5.44 0
v -4.16 -5.76 0
v -4.48 -5.76 0
v -4.48 -5.44 0
v -4.16 -5.44 0
v -4.48 -5.76 0
v -4.8 -5.76 0
v -4.8 -5.44 0
v -4.48 -5.44 0
v -4.8 -5.76 0
v -5.12 -5.76 0
v -5.12 -5.44 0
v -4.8 -5.44 0
v -5.12 -5.76 0
v -5.44 -5.76 0
v -5.44 -5.44 0
v -5.12 -5.44 0
v -5.44 -5.76 0
v -5.76 -5.76 0
v -5.76 -5.44 0
v -5.44 -5.44 0
v -5.76 -5.76 0
v -6.08 -5.76 0
v -6.08 -5.44 0
v -5.76 -5.44 0
v -8.639999 -5.76 0
v -8.96 -5.76 0
v -8.96 -5.44 0
v -8.639999 -5.44 0
v -8.96 -5.76 0
v -9.28 -5.76 0
v -9.28 -5.44 0
v -8.96 -5.44 0
v -9.28 -5.76 0
v -9.599999 -5.76 0
v -9.599999 -5.44 0
v -9.28 -5.44 0
v -9.599999 -5.76 0
v -9.92 -5.76 0
v -9.92 -5.44 0
v -9.599999 -5.44 0
v -9.92 -5.76 0
v -10.24 -5.76 0
v -10.24 -5.44 0
v -9.92 -5.44 0
v -5.76 -6.08 0
v -6.08 -6.08 0
v -6.08 -5.76 0
v -5.76 -5.76 0
v -9.92 -6.08 0
v -10.24 -6.08 0
v -10.24 -5.76 0
v -9.92 -5.76 0
v -5.76 -6.4 0
v -6.08 -6.4 0
v -6.08 -6.08 0
v -5.76 -6.08 0
v -1.6 -8 0
v -1.92 -8 0
v -1.92 -7.68 0
v -1.6 -7.68 0
v -1.92 -8 0
v -2.24 -8 0
v -2.24 -7.68 0
v -1.92 -7.68 0
v -2.24 -8 0
v -2.56 -8 0
v -2.56 -7.68 0
v -2.24 -7.68 0
v -2.56 -8 0
v -2.88 -8 0
v -2.88 -7.68 0
v -2.56 -7.68 0
v -2.88 -8 0
v -3.2 -8 0
v -3.2 -7.68 0
v -2.88 -7.68 0
v -1.6 -8.32 0
v -1.92 -8.32 0
v -1.92 -8 0
v -1.6 -8 0
v -1.92 -8.32 0
v -2.24 -8.32 0
v -2.24 -8 0
v -1.92 -8 0
v -2.24 -8.32 0
v -2.56 -8.32 0
v -2.56 -8 0
v -2.24 -8 0
v -2.56 -8.32 0
v -2.88 -8.32 0
v -2.88 -8 0
v -2.56 -8 0
v -2.88 -8.32 0
v -3.2 -8.32 0
v -3.2 -8 0
v -2.88 -8 0
v -10.88 -8.32 0
v -11.2 -8.32 0
v -11.2 -8 0
v -10.88 -8 0
v -11.2 -8.32 0
v -11.52 -8.32 0
v -11.52 -8 0
v -11.2 -8 0
v -11.52 -8.32 0
v -11.84 -8.32 0
v -11.84 -8 0
v -11.52 -8 0
v -11.84 -8.32 0
v -12.16 -8.32 0
v -12.16 -8 0
v -11.84 -8 0
v -12.16 -8.32 0
v -12.48 -8.32 0
v -12.48 -8 0
v -12.16 -8 0
v -12.48 -8.32 0
v -12.8 -8.32 0
v -12.8 -8 0
v -12.48 -8 0
v -1.6 -8.639999 0
v -1.92 -8.639999 0
v -1.92 -8.32 0
v -1.6 -8.32 0
v -1.92 -8.639999 0
v -2.24 -8.639999 0
v -2.24 -8.32 0
v -1.92 -8.32 0
v -2.24 -8.639999 0
v -2.56 -8.639999 0
v -2.56 -8.32 0
v -2.24 -8.32 0
v -2.56 -8.639999 0
v -2.88 -8.639999 0
v -2.88 -8.32 0
v -2.56 -8.32 0
v -2.88 -8.639999 0
v -3.2 -8.639999 0
v -3.2 -8.32 0
v -2.88 -8.32 0
v -10.88 -8.639999 0
v -11.2 -8.639999 0
v -11.2 -8.32 0
v -10.88 -8.32 0
v -11.2 -8.639999 0
v -11.52 -8.639999 0
v -11.52 -8.32 0
v -11.2 -8.32 0
v -11.52 -8.639999 0
v -11.84 -8.639999 0
v -11.84 -8.32 0
v -11.52 -8.32 0
v -11.84 -8.639999 0
v -12.16 -8.639999 0
v -12.16 -8.32 0
v -11.84 -8.32 0
v -12.16 -8.639999 0
v -12.48 -8.639999 0
v -12.48 -8.32 0
v -12.16 -8.32 0
v -12.48 -8.639999 0
v -12.8 -8.639999 0
v -12.8 -8.32 0
v -12.48 -8.32 0
v -2.88 -8.96 0
v -3.2 -8.96 0
v -3.2 -8.639999 0
v -2.88 -8.639999 0
v -10.88 -8.96 0
v -11.2 -8.96 0
v -11.2 -8.639999 0
v -10.88 -8.639999 0
v -11.2 -8.96 0
v -11.52 -8.96 0
v -11.52 -8.639999 0
v -11.2 -8.639999 0
v -11.52 -8.96 0
v -11.84 -8.96 0
v -11.84 -8.639999 0
v -11.52 -8.639999 0
v -11.84 -8.96 0
v -12.16 -8.96 0
v -12.16 -8.639999 0
v -11.84 -8.639999 0
v -12.16 -8.96 0
v -12.48 -8.96 0
v -12.48 -8.639999 0
v -12.16 -8.639999 0
v -12.48 -8.96 0
v -12.8 -8.96 0
v -12.8 -8.639999 0
v -12.48 -8.639999 0
v -12.48 -9.28 0
v -12.8 -9.28 0
v -12.8 -8.96 0
v -12.48 -8.96 0
v -12.48 -9.599999 0
v -12.8 -9.599999 0
v -12.8 -9.28 0
v -12.48 -9.28 0
v -1.6 -11.2 0
v -1.92 -11.2 0
v -1.92 -10.88 0
v -1.6 -10.88 0
v -1.92 -11.2 0
v -2.24 -11.2 0
v -2.24 -10.88 0
v -1.92 -10.88 0
v -2.24 -11.2 0
v -2.56 -11.2 0
v -2.56 -10.88 0
v -2.24 -10.88 0
v -2.56 -11.2 0
v -2.88 -11.2 0
v -2.88 -10.88 0
v -2.56 -10.88 0
v -2.88 -11.2 0
v -3.2 -11.2 0
v -3.2 -10.88 0
v -2.88 -10.88 0
v -3.2 -11.2 0
v -3.52 -11.2 0
v -3.52 -10.88 0
v -3.2 -10.88 0
v -3.52 -11.2 0
v -3.84 -11.2 0
v -3.84 -10.88 0
v -3.52 -10.88 0
v -8.639999 -11.2 0
v -8.96 -11.2 0
v -8.96 -10.88 0
v -8.639999 -10.88 0
v -8.96 -11.2 0
v -9.28 -11.2 0
v -9.28 -10.88 0
v -8.96 -10.88 0
v -9.28 -11.2 0
v -9.599999 -11.2 0
v -9.599999 -10.88 0
v -9.28 -10.88 0
v -9.599999 -11.2 0
v -9.92 -11.2 0
v -9.92 -10.88 0
v -9.599999 -10.88 0
v -9.92 -11.2 0
v -10.24 -11.2 0
v -10.24 -10.88 0
v -9.92 -10.88 0
v -1.6 -11.52 0
v -1.92 -11.52 0
v -1.92 -11.2 0
v -1.6 -11.2 0
v -1.92 -11.52 0
v -2.24 -11.52 0
v -2.24 -11.2 0
v -1.92 -11.2 0
v -2.24 -11.52 0
v -2.56 -11.52 0
v -2.56 -11.2 0
v -2.24 -11.2 0
v -2.56 -11.52 0
v -2.88 -11.52 0
v -2.88 -11.2 0
v -2.56 -11.2 0
v -2.88 -11.52 0
v -3.2 -11.52 0
v -3.2 -11.2 0
v -2.88 -11.2 0
v -3.2 -11.52 0
v -3.52 -11.52 0
v -3.52 -11.2 0
v -3.2 -11.2 0
v -3.52 -11.52 0
v -3.84 -11.52 0
v -3.84 -11.2 0
v -3.52 -11.2 0
v -3.84 -11.52 0
v -4.16 -11.52 0
v -4.16 -11.2 0
v -3.84 -11.2 0
v -8.639999 -11.52 0
v -8.96 -11.52 0
v -8.96 -11.2 0
v -8.639999 -11.2 0
v -8.96 -11.52 0
v -9.28 -11.52 0
v -9.28 -11.2 0
v -8.96 -11.2 0
v -9.28 -11.52 0
v -9.599999 -11.52 0
v -9.599999 -11.2 0
v -9.28 -11.2 0
v -9.599999 -11.52 0
v -9.92 -11.52 0
v -9.92 -11.2 0
v -9.599999 -11.2 0
v -9.92 -11.52 0
v -10.24 -11.52 0
v -10.24 -11.2 0
v -9.92 -11.2 0
v -11.2 -11.52 0
v -11.52 -11.52 0
v -11.52 -11.2 0
v -11.2 -11.2 0
v -11.52 -11.52 0
v -11.84 -11.52 0
v -11.84 -11.2 0
v -11.52 -11.2 0
v -11.84 -11.52 0
v -12.16 -11.52 0
v -12.16 -11.2 0
v -11.84 -11.2 0
v -12.16 -11.52 0
v -12.48 -11.52 0
v -12.48 -11.2 0
v -12.16 -11.2 0
v -12.48 -11.52 0
v -12.8 -11.52 0
v -12.8 -11.2 0
v -12.48 -11.2 0
v -1.6 -11.84 0
v -1.92 -11.84 0
v -1.92 -11.52 0
v -1.6 -11.52 0
v -1.92 -11.84 0
v -2.24 -11.84 0
v -2.24 -11.52 0
v -1.92 -11.52 0
v -3.52 -11.84 0
v -3.84 -11.84 0
v -3.84 -11.52 0
v -3.52 -11.52 0
v -3.84 -11.84 0
v -4.16 -11.84 0
v -4.16 -11.52 0
v -3.84 -11.52 0
v -8.639999 -11.84 0
v -8.96 -11.84 0
v -8.96 -11.52 0
v -8.639999 -11.52 0
v -8.96 -11.84 0
v -9.28 -11.84 0
v -9.28 -11.52 0
v -8.96 -11.52 0
v -9.28 -11.84 0
v -9.599999 -11.84 0
v -9.599999 -11.52 0
v -9.28 -11.52 0
v -9.599999 -11.84 0
v -9.92 -11.84 0
v -9.92 -11.52 0
v -9.599999 -11.52 0
v -9.92 -11.84 0
v -10.24 -11.84 0
v -10.24 -11.52 0
v -9.92 -11.52 0
v -11.2 -11.84 0
v -11.52 -11.84 0
v -11.52 -11.52 0
v -11.2 -11.52 0
v -11.52 -11.84 0
v -11.84 -11.84 0
v -11.84 -11.52 0
v -11.52 -11.52 0
v -11.84 -11.84 0
v -12.16 -11.84 0
v -12.16 -11.52 0
v -11.84 -11.52 0
v -12.16 -11.84 0
v -12.48 -11.84 0
v -12.48 -11.52 0
v -12.16 -11.52 0
v -12.48 -11.84 0
v -12.8 -11.84 0
v -12.8 -11.52 0
v -12.48 -11.52 0
v -3.84 -12.16 0
v -4.16 -12.16 0
v -4.16 -11.84 0
v -3.84 -11.84 0
v -9.92 -12.16 0
v -10.24 -12.16 0
v -10.24 -11.84 0
v -9.92 -11.84 0
v -11.2 -12.16 0
v -11.52 -12.16 0
v -11.52 -11.84 0
v -11.2 -11.84 0
v -11.52 -12.16 0
v -11.84 -12.16 0
v -11.84 -11.84 0
v -11.52 -11.84 0
v -11.84 -12.16 0
v -12.16 -12.16 0
v -12.16 -11.84 0
v -11.84 -11.84 0
v -12.16 -12.16 0
v -12.48 -12.16 0
v -12.48 -11.84 0
v -12.16 -11.84 0
v -12.48 -12.16 0
v -12.8 -12.16 0
v -12.8 -11.84 0
v -12.48 -11.84 0
v -12.48 -12.48 0
v -12.8 -12.48 0
v -12.8 -12.16 0
v -12.48 -12.16 0

# Texture cooridinates (Count = 368)
vt 0.07399577 0.2872154
vt 0.1416491 0.2872154
vt 0.1416491 0.3432574
vt 0.07399577 0.3432574
vt 0.1458774 0.2872154
vt 0.2135307 0.2872154
vt 0.2135307 0.3432574
vt 0.1458774 0.3432574
vt 0.217759 0.2872154
vt 0.2854123 0.2872154
vt 0.2854123 0.3432574
vt 0.217759 0.3432574
vt 0.2896406 0.2872154
vt 0.3572939 0.2872154
vt 0.3572939 0.3432574
vt 0.2896406 0.3432574
vt 0.3615222 0.2872154
vt 0.4291755 0.2872154
vt 0.4291755 0.3432574
vt 0.3615222 0.3432574
vt 0.07399577 0.2276707
vt 0.1416491 0.2276707
vt 0.1416491 0.2837128
vt 0.07399577 0.2837128
vt 0.1458774 0.2276707
vt 0.2135307 0.2276707
vt 0.2135307 0.2837128
vt 0.1458774 0.2837128
vt 0.217759 0.2276707
vt 0.2854123 0.2276707
vt 0.2854123 0.2837128
vt 0.217759 0.2837128
vt 0.2896406 0.2276707
vt 0.3572939 0.2276707
vt 0.3572939 0.2837128
vt 0.2896406 0.2837128
vt 0.3615222 0.2276707
vt 0.4291755 0.2276707
vt 0.4291755 0.2837128
vt 0.3615222 0.2837128
vt 0.07399577 0.5849387
vt 0.1416491 0.5849387
vt 0.1416491 0.6409807
vt 0.07399577 0.6409807
vt 0.1458774 0.5849387
vt 0.2135307 0.5849387
vt 0.2135307 0.6409807
vt 0.1458774 0.6409807
vt 0.217759 0.5849387
vt 0.2854123 0.5849387
vt 0.2854123 0.6409807
vt 0.217759 0.6409807
vt 0.2896406 0.5849387
vt 0.3572939 0.5849387
vt 0.3572939 0.6409807
vt 0.2896406 0.6409807
vt 0.3615222 0.5849387
vt 0.4291755 0.5849387
vt 0.4291755 0.6409807
vt 0.3615222 0.6409807
vt 0.4334038 0.5849387
vt 0.5010571 0.5849387
vt 0.5010571 0.6409807
vt 0.4334038 0.6409807
vt 0.577167 0.5849387
vt 0.6448203 0.5849387
vt 0.6448203 0.6409807
vt 0.577167 0.6409807
vt 0.6490486 0.5849387
vt 0.7167019 0.5849387
vt 0.7167019 0.6409807
vt 0.6490486 0.6409807
vt 0.7209302 0.5849387
vt 0.7885835 0.5849387
vt 0.7885835 0.6409807
vt 0.7209302 0.6409807
vt 0.7928118 0.5849387
vt 0.8604651 0.5849387
vt 0.8604651 0.6409807
vt 0.7928118 0.6409807
vt 0.8646935 0.5849387
vt 0.9323467 0.5849387
vt 0.9323467 0.6409807
vt 0.8646935 0.6409807
vt 0.07399577 0.1681261
vt 0.1416491 0.1681261
vt 0.1416491 0.2241681
vt 0.07399577 0.2241681
vt 0.1458774 0.1681261
vt 0.2135307 0.1681261
vt 0.2135307 0.2241681
vt 0.1458774 0.2241681
vt 0.217759 0.1681261
vt 0.2854123 0.1681261
vt 0.2854123 0.2241681
vt 0.217759 0.2241681
vt 0.2896406 0.1681261
vt 0.3572939 0.1681261
vt 0.3572939 0.2241681
vt 0.2896406 0.2241681
vt 0.3615222 0.1681261
vt 0.4291755 0.1681261
vt 0.4291755 0.2241681
vt 0.3615222 0.2241681
vt 0.07399577 0.5253941
vt 0.1416491 0.5253941
vt 0.1416491 0.581436
vt 0.07399577 0.581436
vt 0.1458774 0.5253941
vt 0.2135307 0.5253941
vt 0.2135307 0.581436
vt 0.1458774 0.581436
vt 0.217759 0.5253941
vt 0.2854123 0.5253941
vt 0.2854123 0.581436
vt 0.217759 0.581436
vt 0.2896406 0.5253941
vt 0.3572939 0.5253941
vt 0.3572939 0.581436
vt 0.2896406 0.581436
vt 0.3615222 0.5253941
vt 0.4291755 0.5253941
vt 0.4291755 0.581436
vt 0.3615222 0.581436
vt 0.4334038 0.5253941
vt 0.5010571 0.5253941
vt 0.5010571 0.581436
vt 0.4334038 0.581436
vt 0.577167 0.5253941
vt 0.6448203 0.5253941
vt 0.6448203 0.581436
vt 0.577167 0.581436
vt 0.6490486 0.5253941
vt 0.7167019 0.5253941
vt 0.7167019 0.581436
vt 0.6490486 0.581436
vt 0.7209302 0.5253941
vt 0.7885835 0.5253941
vt 0.7885835 0.581436
vt 0.7209302 0.581436
vt 0.7928118 0.5253941
vt 0.8604651 0.5253941
vt 0.8604651 0.581436
vt 0.7928118 0.581436
vt 0.8646935 0.5253941
vt 0.9323467 0.5253941
vt 0.9323467 0.581436
vt 0.8646935 0.581436
vt 0.07399577 0.1085814
vt 0.1416491 0.1085814
vt 0.1416491 0.1646234
vt 0.07399577 0.1646234
vt 0.1458774 0.1085814
vt 0.2135307 0.1085814
vt 0.2135307 0.1646234
vt 0.1458774 0.1646234
vt 0.217759 0.1085814
vt 0.2854123 0.1085814
vt 0.2854123 0.1646234
vt 0.217759 0.1646234
vt 0.2896406 0.1085814
vt 0.3572939 0.1085814
vt 0.3572939 0.1646234
vt 0.2896406 0.1646234
vt 0.3615222 0.1085814
vt 0.4291755 0.1085814
vt 0.4291755 0.1646234
vt 0.3615222 0.1646234
vt 0.07399577 0.4658494
vt 0.1416491 0.4658494
vt 0.1416491 0.5218914
vt 0.07399577 0.5218914
vt 0.1458774 0.4658494
vt 0.2135307 0.4658494
vt 0.2135307 0.5218914
vt 0.1458774 0.5218914
vt 0.217759 0.4658494
vt 0.2854123 0.4658494
vt 0.2854123 0.5218914
vt 0.217759 0.5218914
vt 0.2896406 0.4658494
vt 0.3572939 0.4658494
vt 0.3572939 0.5218914
vt 0.2896406 0.5218914
vt 0.3615222 0.4658494
vt 0.4291755 0.4658494
vt 0.4291755 0.5218914
vt 0.3615222 0.5218914
vt 0.4334038 0.4658494
vt 0.5010571 0.4658494
vt 0.5010571 0.5218914
vt 0.4334038 0.5218914
vt 0.577167 0.4658494
vt 0.6448203 0.4658494
vt 0.6448203 0.5218914
vt 0.577167 0.5218914
vt 0.6490486 0.4658494
vt 0.7167019 0.4658494
vt 0.7167019 0.5218914
vt 0.6490486 0.5218914
vt 0.7209302 0.4658494
vt 0.7885835 0.4658494
vt 0.7885835 0.5218914
vt 0.7209302 0.5218914
vt 0.7928118 0.4658494
vt 0.8604651 0.4658494
vt 0.8604651 0.5218914
vt 0.7928118 0.5218914
vt 0.8646935 0.4658494
vt 0.9323467 0.4658494
vt 0.9323467 0.5218914
vt 0.8646935 0.5218914
vt 0.4334038 0.4063047
vt 0.5010571 0.4063047
vt 0.5010571 0.4623467
vt 0.4334038 0.4623467
vt 0.8646935 0.4063047
vt 0.9323467 0.4063047
vt 0.9323467 0.4623467
vt 0.8646935 0.4623467
vt 0.4334038 0.3467601
vt 0.5010571 0.3467601
vt 0.5010571 0.4028021
vt 0.4334038 0.4028021
vt 0.577167 0.882662
vt 0.6448203 0.882662
vt 0.6448203 0.938704
vt 0.577167 0.938704
vt 0.6490486 0.882662
vt 0.7167019 0.882662
vt 0.7167019 0.938704
vt 0.6490486 0.938704
vt 0.7209302 0.882662
vt 0.7885835 0.882662
vt 0.7885835 0.938704
vt 0.7209302 0.938704
vt 0.7928118 0.882662
vt 0.8604651 0.882662
vt 0.8604651 0.938704
vt 0.7928118 0.938704
vt 0.8646935 0.882662
vt 0.9323467 0.882662
vt 0.9323467 0.938704
vt 0.8646935 0.938704
vt 0.577167 0.8231173
vt 0.6448203 0.8231173
vt 0.6448203 0.8791594
vt 0.577167 0.8791594
vt 0.6490486 0.8231173
vt 0.7167019 0.8231173
vt 0.7167019 0.8791594
vt 0.6490486 0.8791594
vt 0.7209302 0.8231173
vt 0.7885835 0.8231173
vt 0.7885835 0.8791594
vt 0.7209302 0.8791594
vt 0.7928118 0.8231173
vt 0.8604651 0.8231173
vt 0.8604651 0.8791594
vt 0.7928118 0.8791594
vt 0.8646935 0.8231173
vt 0.9323467 0.8231173
vt 0.9323467 0.8791594
vt 0.8646935 0.8791594
vt 0.577167 0.7635727
vt 0.6448203 0.7635727
vt 0.6448203 0.8196147
vt 0.577167 0.8196147
vt 0.6490486 0.7635727
vt 0.7167019 0.7635727
vt 0.7167019 0.8196147
vt 0.6490486 0.8196147
vt 0.7209302 0.7635727
vt 0.7885835 0.7635727
vt 0.7885835 0.8196147
vt 0.7209302 0.8196147
vt 0.7928118 0.7635727
vt 0.8604651 0.7635727
vt 0.8604651 0.8196147
vt 0.7928118 0.8196147
vt 0.8646935 0.7635727
vt 0.9323467 0.7635727
vt 0.9323467 0.8196147
vt 0.8646935 0.8196147
vt 0.8646935 0.704028
vt 0.9323467 0.704028
vt 0.9323467 0.7600701
vt 0.8646935 0.7600701
vt 0.002114165 0.882662
vt 0.06976745 0.882662
vt 0.06976745 0.938704
vt 0.002114165 0.938704
vt 0.07399577 0.882662
vt 0.1416491 0.882662
vt 0.1416491 0.938704
vt 0.07399577 0.938704
vt 0.1458774 0.882662
vt 0.2135307 0.882662
vt 0.2135307 0.938704
vt 0.1458774 0.938704
vt 0.217759 0.882662
vt 0.2854123 0.882662
vt 0.2854123 0.938704
vt 0.217759 0.938704
vt 0.2896406 0.882662
vt 0.3572939 0.882662
vt 0.3572939 0.938704
vt 0.2896406 0.938704
vt 0.3615222 0.882662
vt 0.4291755 0.882662
vt 0.4291755 0.938704
vt 0.3615222 0.938704
vt 0.4334038 0.882662
vt 0.5010571 0.882662
vt 0.5010571 0.938704
vt 0.4334038 0.938704
vt 0.002114165 0.8231173
vt 0.06976745 0.8231173
vt 0.06976745 0.8791594
vt 0.002114165 0.8791594
vt 0.07399577 0.8231173
vt 0.1416491 0.8231173
vt 0.1416491 0.8791594
vt 0.07399577 0.8791594
vt 0.1458774 0.8231173
vt 0.2135307 0.8231173
vt 0.2135307 0.8791594
vt 0.1458774 0.8791594
vt 0.217759 0.8231173
vt 0.2854123 0.8231173
vt 0.2854123 0.8791594
vt 0.217759 0.8791594
vt 0.2896406 0.8231173
vt 0.3572939 0.8231173
vt 0.3572939 0.8791594
vt 0.2896406 0.8791594
vt 0.3615222 0.8231173
vt 0.4291755 0.8231173
vt 0.4291755 0.8791594
vt 0.3615222 0.8791594
vt 0.4334038 0.8231173
vt 0.5010571 0.8231173
vt 0.5010571 0.8791594
vt 0.4334038 0.8791594
vt 0.5052854 0.8231173
vt 0.5729387 0.8231173
vt 0.5729387 0.8791594
vt 0.5052854 0.8791594
vt 0.002114165 0.7635727
vt 0.06976745 0.7635727
vt 0.06976745 0.8196147
vt 0.002114165 0.8196147
vt 0.07399577 0.7635727
vt 0.1416491 0.7635727
vt 0.1416491 0.8196147
vt 0.07399577 0.8196147
vt 0.4334038 0.7635727
vt 0.5010571 0.7635727
vt 0.5010571 0.8196147
vt 0.4334038 0.8196147
vt 0.5052854 0.7635727
vt 0.5729387 0.7635727
vt 0.5729387 0.8196147
vt 0.5052854 0.8196147
vt 0.5052854 0.704028
vt 0.5729387 0.704028
vt 0.5729387 0.7600701
vt 0.5052854 0.7600701

# Normal
vn 0 0 -1

# Mesh description
g CastleOutDoors_mesh_0015

# Faces
f 1/1/1 2/2/1 3/3/1 4/4/1
f 5/5/1 6/6/1 7/7/1 8/8/1
f 9/9/1 10/10/1 11/11/1 12/12/1
f 13/13/1 14/14/1 15/15/1 16/16/1
f 17/17/1 18/18/1 19/19/1 20/20/1
f 21/21/1 22/22/1 23/23/1 24/24/1
f 25/25/1 26/26/1 27/27/1 28/28/1
f 29/29/1 30/30/1 31/31/1 32/32/1
f 33/33/1 34/34/1 35/35/1 36/36/1
f 37/37/1 38/38/1 39/39/1 40/40/1
f 41/41/1 42/42/1 43/43/1 44/44/1
f 45/45/1 46/46/1 47/47/1 48/48/1
f 49/49/1 50/50/1 51/51/1 52/52/1
f 53/53/1 54/54/1 55/55/1 56/56/1
f 57/57/1 58/58/1 59/59/1 60/60/1
f 61/61/1 62/62/1 63/63/1 64/64/1
f 65/65/1 66/66/1 67/67/1 68/68/1
f 69/69/1 70/70/1 71/71/1 72/72/1
f 73/73/1 74/74/1 75/75/1 76/76/1
f 77/77/1 78/78/1 79/79/1 80/80/1
f 81/81/1 82/82/1 83/83/1 84/84/1
f 85/85/1 86/86/1 87/87/1 88/88/1
f 89/89/1 90/90/1 91/91/1 92/92/1
f 93/93/1 94/94/1 95/95/1 96/96/1
f 97/97/1 98/98/1 99/99/1 100/100/1
f 101/101/1 102/102/1 103/103/1 104/104/1
f 105/105/1 106/106/1 107/107/1 108/108/1
f 109/109/1 110/110/1 111/111/1 112/112/1
f 113/113/1 114/114/1 115/115/1 116/116/1
f 117/117/1 118/118/1 119/119/1 120/120/1
f 121/121/1 122/122/1 123/123/1 124/124/1
f 125/125/1 126/126/1 127/127/1 128/128/1
f 129/129/1 130/130/1 131/131/1 132/132/1
f 133/133/1 134/134/1 135/135/1 136/136/1
f 137/137/1 138/138/1 139/139/1 140/140/1
f 141/141/1 142/142/1 143/143/1 144/144/1
f 145/145/1 146/146/1 147/147/1 148/148/1
f 149/149/1 150/150/1 151/151/1 152/152/1
f 153/153/1 154/154/1 155/155/1 156/156/1
f 157/157/1 158/158/1 159/159/1 160/160/1
f 161/161/1 162/162/1 163/163/1 164/164/1
f 165/165/1 166/166/1 167/167/1 168/168/1
f 169/169/1 170/170/1 171/171/1 172/172/1
f 173/173/1 174/174/1 175/175/1 176/176/1
f 177/177/1 178/178/1 179/179/1 180/180/1
f 181/181/1 182/182/1 183/183/1 184/184/1
f 185/185/1 186/186/1 187/187/1 188/188/1
f 189/189/1 190/190/1 191/191/1 192/192/1
f 193/193/1 194/194/1 195/195/1 196/196/1
f 197/197/1 198/198/1 199/199/1 200/200/1
f 201/201/1 202/202/1 203/203/1 204/204/1
f 205/205/1 206/206/1 207/207/1 208/208/1
f 209/209/1 210/210/1 211/211/1 212/212/1
f 213/213/1 214/214/1 215/215/1 216/216/1
f 217/217/1 218/218/1 219/219/1 220/220/1
f 221/221/1 222/222/1 223/223/1 224/224/1
f 225/225/1 226/226/1 227/227/1 228/228/1
f 229/229/1 230/230/1 231/231/1 232/232/1
f 233/233/1 234/234/1 235/235/1 236/236/1
f 237/237/1 238/238/1 239/239/1 240/240/1
f 241/241/1 242/242/1 243/243/1 244/244/1
f 245/245/1 246/246/1 247/247/1 248/248/1
f 249/249/1 250/250/1 251/251/1 252/252/1
f 253/253/1 254/254/1 255/255/1 256/256/1
f 257/257/1 258/258/1 259/259/1 260/260/1
f 261/261/1 262/262/1 263/263/1 264/264/1
f 265/41/1 266/42/1 267/43/1 268/44/1
f 269/45/1 270/46/1 271/47/1 272/48/1
f 273/49/1 274/50/1 275/51/1 276/52/1
f 277/53/1 278/54/1 279/55/1 280/56/1
f 281/57/1 282/58/1 283/59/1 284/60/1
f 285/61/1 286/62/1 287/63/1 288/64/1
f 289/265/1 290/266/1 291/267/1 292/268/1
f 293/269/1 294/270/1 295/271/1 296/272/1
f 297/273/1 298/274/1 299/275/1 300/276/1
f 301/277/1 302/278/1 303/279/1 304/280/1
f 305/281/1 306/282/1 307/283/1 308/284/1
f 309/105/1 310/106/1 311/107/1 312/108/1
f 313/109/1 314/110/1 315/111/1 316/112/1
f 317/113/1 318/114/1 319/115/1 320/116/1
f 321/117/1 322/118/1 323/119/1 324/120/1
f 325/121/1 326/122/1 327/123/1 328/124/1
f 329/125/1 330/126/1 331/127/1 332/128/1
f 333/285/1 334/286/1 335/287/1 336/288/1
f 337/169/1 338/170/1 339/171/1 340/172/1
f 341/173/1 342/174/1 343/175/1 344/176/1
f 345/177/1 346/178/1 347/179/1 348/180/1
f 349/181/1 350/182/1 351/183/1 352/184/1
f 353/185/1 354/186/1 355/187/1 356/188/1
f 357/189/1 358/190/1 359/191/1 360/192/1
f 361/213/1 362/214/1 363/215/1 364/216/1
f 365/221/1 366/222/1 367/223/1 368/224/1
f 369/289/1 370/290/1 371/291/1 372/292/1
f 373/293/1 374/294/1 375/295/1 376/296/1
f 377/297/1 378/298/1 379/299/1 380/300/1
f 381/301/1 382/302/1 383/303/1 384/304/1
f 385/305/1 386/306/1 387/307/1 388/308/1
f 389/309/1 390/310/1 391/311/1 392/312/1
f 393/313/1 394/314/1 395/315/1 396/316/1
f 397/65/1 398/66/1 399/67/1 400/68/1
f 401/69/1 402/70/1 403/71/1 404/72/1
f 405/73/1 406/74/1 407/75/1 408/76/1
f 409/77/1 410/78/1 411/79/1 412/80/1
f 413/81/1 414/82/1 415/83/1 416/84/1
f 417/317/1 418/318/1 419/319/1 420/320/1
f 421/321/1 422/322/1 423/323/1 424/324/1
f 425/325/1 426/326/1 427/327/1 428/328/1
f 429/329/1 430/330/1 431/331/1 432/332/1
f 433/333/1 434/334/1 435/335/1 436/336/1
f 437/337/1 438/338/1 439/339/1 440/340/1
f 441/341/1 442/342/1 443/343/1 444/344/1
f 445/345/1 446/346/1 447/347/1 448/348/1
f 449/129/1 450/130/1 451/131/1 452/132/1
f 453/133/1 454/134/1 455/135/1 456/136/1
f 457/137/1 458/138/1 459/139/1 460/140/1
f 461/141/1 462/142/1 463/143/1 464/144/1
f 465/145/1 466/146/1 467/147/1 468/148/1
f 469/225/1 470/226/1 471/227/1 472/228/1
f 473/229/1 474/230/1 475/231/1 476/232/1
f 477/233/1 478/234/1 479/235/1 480/236/1
f 481/237/1 482/238/1 483/239/1 484/240/1
f 485/241/1 486/242/1 487/243/1 488/244/1
f 489/349/1 490/350/1 491/351/1 492/352/1
f 493/353/1 494/354/1 495/355/1 496/356/1
f 497/357/1 498/358/1 499/359/1 500/360/1
f 501/361/1 502/362/1 503/363/1 504/364/1
f 505/193/1 506/194/1 507/195/1 508/196/1
f 509/197/1 510/198/1 511/199/1 512/200/1
f 513/201/1 514/202/1 515/203/1 516/204/1
f 517/205/1 518/206/1 519/207/1 520/208/1
f 521/209/1 522/210/1 523/211/1 524/212/1
f 525/245/1 526/246/1 527/247/1 528/248/1
f 529/249/1 530/250/1 531/251/1 532/252/1
f 533/253/1 534/254/1 535/255/1 536/256/1
f 537/257/1 538/258/1 539/259/1 540/260/1
f 541/261/1 542/262/1 543/263/1 544/264/1
f 545/365/1 546/366/1 547/367/1 548/368/1
f 549/217/1 550/218/1 551/219/1 552/220/1
f 553/265/1 554/266/1 555/267/1 556/268/1
f 557/269/1 558/270/1 559/271/1 560/272/1
f 561/273/1 562/274/1 563/275/1 564/276/1
f 565/277/1 566/278/1 567/279/1 568/280/1
f 569/281/1 570/282/1 571/283/1 572/284/1
f 573/285/1 574/286/1 575/287/1 576/288/1

