# Tiled2Unity generated file. Do not modify by hand.
# Wavefront file for 'CastleOutDoors_mesh_0003.obj'

# Vertices (Count = 8)
v -6.4 -14.72 0
v -6.72 -14.72 0
v -6.72 -14.4 0
v -6.4 -14.4 0
v -7.68 -14.72 0
v -8 -14.72 0
v -8 -14.4 0
v -7.68 -14.4 0

# Texture cooridinates (Count = 4)
vt 0.06433824 0.1893382
vt 0.1231618 0.1893382
vt 0.1231618 0.2481618
vt 0.06433824 0.2481618

# Normal
vn 0 0 -1

# Mesh description
g CastleOutDoors_mesh_0003

# Faces
f 1/1/1 2/2/1 3/3/1 4/4/1
f 5/1/1 6/2/1 7/3/1 8/4/1

