# Tiled2Unity generated file. Do not modify by hand.
# Wavefront file for 'CastleOutDoors_mesh_0016.obj'

# Vertices (Count = 104)
v -11.52 -5.12 0
v -11.84 -5.12 0
v -11.84 -4.8 0
v -11.52 -4.8 0
v -11.84 -5.12 0
v -12.16 -5.12 0
v -12.16 -4.8 0
v -11.84 -4.8 0
v -12.16 -5.12 0
v -12.48 -5.12 0
v -12.48 -4.8 0
v -12.16 -4.8 0
v -12.48 -5.12 0
v -12.8 -5.12 0
v -12.8 -4.8 0
v -12.48 -4.8 0
v -11.52 -5.44 0
v -11.84 -5.44 0
v -11.84 -5.12 0
v -11.52 -5.12 0
v -11.84 -5.44 0
v -12.16 -5.44 0
v -12.16 -5.12 0
v -11.84 -5.12 0
v -12.16 -5.44 0
v -12.48 -5.44 0
v -12.48 -5.12 0
v -12.16 -5.12 0
v -12.48 -5.44 0
v -12.8 -5.44 0
v -12.8 -5.12 0
v -12.48 -5.12 0
v -11.52 -5.76 0
v -11.84 -5.76 0
v -11.84 -5.44 0
v -11.52 -5.44 0
v -11.84 -5.76 0
v -12.16 -5.76 0
v -12.16 -5.44 0
v -11.84 -5.44 0
v -12.16 -5.76 0
v -12.48 -5.76 0
v -12.48 -5.44 0
v -12.16 -5.44 0
v -12.48 -5.76 0
v -12.8 -5.76 0
v -12.8 -5.44 0
v -12.48 -5.44 0
v -3.84 -8 0
v -4.16 -8 0
v -4.16 -7.68 0
v -3.84 -7.68 0
v -4.16 -8 0
v -4.48 -8 0
v -4.48 -7.68 0
v -4.16 -7.68 0
v -4.8 -8.639999 0
v -5.12 -8.639999 0
v -5.12 -8.32 0
v -4.8 -8.32 0
v -4.8 -11.52 0
v -5.12 -11.52 0
v -5.12 -11.2 0
v -4.8 -11.2 0
v -5.12 -11.52 0
v -5.44 -11.52 0
v -5.44 -11.2 0
v -5.12 -11.2 0
v -5.44 -11.52 0
v -5.76 -11.52 0
v -5.76 -11.2 0
v -5.44 -11.2 0
v -4.48 -11.84 0
v -4.8 -11.84 0
v -4.8 -11.52 0
v -4.48 -11.52 0
v -4.8 -11.84 0
v -5.12 -11.84 0
v -5.12 -11.52 0
v -4.8 -11.52 0
v -5.12 -11.84 0
v -5.44 -11.84 0
v -5.44 -11.52 0
v -5.12 -11.52 0
v -5.44 -11.84 0
v -5.76 -11.84 0
v -5.76 -11.52 0
v -5.44 -11.52 0
v -5.76 -11.84 0
v -6.08 -11.84 0
v -6.08 -11.52 0
v -5.76 -11.52 0
v -4.8 -12.16 0
v -5.12 -12.16 0
v -5.12 -11.84 0
v -4.8 -11.84 0
v -5.12 -12.16 0
v -5.44 -12.16 0
v -5.44 -11.84 0
v -5.12 -11.84 0
v -5.44 -12.16 0
v -5.76 -12.16 0
v -5.76 -11.84 0
v -5.44 -11.84 0

# Texture cooridinates (Count = 88)
vt 0.7518382 0.7518382
vt 0.8106618 0.7518382
vt 0.8106618 0.8106618
vt 0.7518382 0.8106618
vt 0.8143382 0.7518382
vt 0.8731618 0.7518382
vt 0.8731618 0.8106618
vt 0.8143382 0.8106618
vt 0.7518382 0.6893382
vt 0.8106618 0.6893382
vt 0.8106618 0.7481618
vt 0.7518382 0.7481618
vt 0.8143382 0.6893382
vt 0.8731618 0.6893382
vt 0.8731618 0.7481618
vt 0.8143382 0.7481618
vt 0.8768382 0.7518382
vt 0.9356618 0.7518382
vt 0.9356618 0.8106618
vt 0.8768382 0.8106618
vt 0.9393382 0.7518382
vt 0.9981618 0.7518382
vt 0.9981618 0.8106618
vt 0.9393382 0.8106618
vt 0.8768382 0.6268382
vt 0.9356618 0.6268382
vt 0.9356618 0.6856618
vt 0.8768382 0.6856618
vt 0.9393382 0.6268382
vt 0.9981618 0.6268382
vt 0.9981618 0.6856618
vt 0.9393382 0.6856618
vt 0.3768382 0.2518382
vt 0.4356618 0.2518382
vt 0.4356618 0.3106618
vt 0.3768382 0.3106618
vt 0.4393382 0.2518382
vt 0.4981618 0.2518382
vt 0.4981618 0.3106618
vt 0.4393382 0.3106618
vt 0.001838235 0.6268382
vt 0.06066176 0.6268382
vt 0.06066176 0.6856618
vt 0.001838235 0.6856618
vt 0.8143382 0.5018382
vt 0.8731618 0.5018382
vt 0.8731618 0.5606618
vt 0.8143382 0.5606618
vt 0.8768382 0.5018382
vt 0.9356618 0.5018382
vt 0.9356618 0.5606618
vt 0.8768382 0.5606618
vt 0.9393382 0.5018382
vt 0.9981618 0.5018382
vt 0.9981618 0.5606618
vt 0.9393382 0.5606618
vt 0.3768382 0.3768382
vt 0.4356618 0.3768382
vt 0.4356618 0.4356618
vt 0.3768382 0.4356618
vt 0.8143382 0.4393382
vt 0.8731618 0.4393382
vt 0.8731618 0.4981618
vt 0.8143382 0.4981618
vt 0.8768382 0.4393382
vt 0.9356618 0.4393382
vt 0.9356618 0.4981618
vt 0.8768382 0.4981618
vt 0.9393382 0.4393382
vt 0.9981618 0.4393382
vt 0.9981618 0.4981618
vt 0.9393382 0.4981618
vt 0.4393382 0.3768382
vt 0.4981618 0.3768382
vt 0.4981618 0.4356618
vt 0.4393382 0.4356618
vt 0.8143382 0.3768382
vt 0.8731618 0.3768382
vt 0.8731618 0.4356618
vt 0.8143382 0.4356618
vt 0.8768382 0.3768382
vt 0.9356618 0.3768382
vt 0.9356618 0.4356618
vt 0.8768382 0.4356618
vt 0.9393382 0.3768382
vt 0.9981618 0.3768382
vt 0.9981618 0.4356618
vt 0.9393382 0.4356618

# Normal
vn 0 0 -1

# Mesh description
g CastleOutDoors_mesh_0016

# Faces
f 1/1/1 2/2/1 3/3/1 4/4/1
f 5/5/1 6/6/1 7/7/1 8/8/1
f 9/1/1 10/2/1 11/3/1 12/4/1
f 13/5/1 14/6/1 15/7/1 16/8/1
f 17/9/1 18/10/1 19/11/1 20/12/1
f 21/13/1 22/14/1 23/15/1 24/16/1
f 25/9/1 26/10/1 27/11/1 28/12/1
f 29/13/1 30/14/1 31/15/1 32/16/1
f 33/17/1 34/18/1 35/19/1 36/20/1
f 37/21/1 38/22/1 39/23/1 40/24/1
f 41/25/1 42/26/1 43/27/1 44/28/1
f 45/29/1 46/30/1 47/31/1 48/32/1
f 49/33/1 50/34/1 51/35/1 52/36/1
f 53/37/1 54/38/1 55/39/1 56/40/1
f 57/41/1 58/42/1 59/43/1 60/44/1
f 61/45/1 62/46/1 63/47/1 64/48/1
f 65/49/1 66/50/1 67/51/1 68/52/1
f 69/53/1 70/54/1 71/55/1 72/56/1
f 73/57/1 74/58/1 75/59/1 76/60/1
f 77/61/1 78/62/1 79/63/1 80/64/1
f 81/65/1 82/66/1 83/67/1 84/68/1
f 85/69/1 86/70/1 87/71/1 88/72/1
f 89/73/1 90/74/1 91/75/1 92/76/1
f 93/77/1 94/78/1 95/79/1 96/80/1
f 97/81/1 98/82/1 99/83/1 100/84/1
f 101/85/1 102/86/1 103/87/1 104/88/1

