# Tiled2Unity generated file. Do not modify by hand.
# Wavefront file for 'CastleOutDoors_mesh_0006.obj'

# Vertices (Count = 320)
v -1.6 -6.08 0
v -1.92 -6.08 0
v -1.92 -5.76 0
v -1.6 -5.76 0
v -1.92 -6.08 0
v -2.24 -6.08 0
v -2.24 -5.76 0
v -1.92 -5.76 0
v -2.24 -6.08 0
v -2.56 -6.08 0
v -2.56 -5.76 0
v -2.24 -5.76 0
v -2.56 -6.08 0
v -2.88 -6.08 0
v -2.88 -5.76 0
v -2.56 -5.76 0
v -2.88 -6.08 0
v -3.2 -6.08 0
v -3.2 -5.76 0
v -2.88 -5.76 0
v -4.16 -6.08 0
v -4.48 -6.08 0
v -4.48 -5.76 0
v -4.16 -5.76 0
v -4.48 -6.08 0
v -4.8 -6.08 0
v -4.8 -5.76 0
v -4.48 -5.76 0
v -4.8 -6.08 0
v -5.12 -6.08 0
v -5.12 -5.76 0
v -4.8 -5.76 0
v -5.12 -6.08 0
v -5.44 -6.08 0
v -5.44 -5.76 0
v -5.12 -5.76 0
v -5.44 -6.08 0
v -5.76 -6.08 0
v -5.76 -5.76 0
v -5.44 -5.76 0
v -8.639999 -6.08 0
v -8.96 -6.08 0
v -8.96 -5.76 0
v -8.639999 -5.76 0
v -8.96 -6.08 0
v -9.28 -6.08 0
v -9.28 -5.76 0
v -8.96 -5.76 0
v -9.28 -6.08 0
v -9.599999 -6.08 0
v -9.599999 -5.76 0
v -9.28 -5.76 0
v -9.599999 -6.08 0
v -9.92 -6.08 0
v -9.92 -5.76 0
v -9.599999 -5.76 0
v -4.16 -6.4 0
v -4.48 -6.4 0
v -4.48 -6.08 0
v -4.16 -6.08 0
v -4.48 -6.4 0
v -4.8 -6.4 0
v -4.8 -6.08 0
v -4.48 -6.08 0
v -4.8 -6.4 0
v -5.12 -6.4 0
v -5.12 -6.08 0
v -4.8 -6.08 0
v -5.12 -6.4 0
v -5.44 -6.4 0
v -5.44 -6.08 0
v -5.12 -6.08 0
v -5.44 -6.4 0
v -5.76 -6.4 0
v -5.76 -6.08 0
v -5.44 -6.08 0
v -8.639999 -6.4 0
v -8.96 -6.4 0
v -8.96 -6.08 0
v -8.639999 -6.08 0
v -8.96 -6.4 0
v -9.28 -6.4 0
v -9.28 -6.08 0
v -8.96 -6.08 0
v -9.28 -6.4 0
v -9.599999 -6.4 0
v -9.599999 -6.08 0
v -9.28 -6.08 0
v -9.599999 -6.4 0
v -9.92 -6.4 0
v -9.92 -6.08 0
v -9.599999 -6.08 0
v -9.92 -6.4 0
v -10.24 -6.4 0
v -10.24 -6.08 0
v -9.92 -6.08 0
v -1.6 -8.96 0
v -1.92 -8.96 0
v -1.92 -8.639999 0
v -1.6 -8.639999 0
v -1.92 -8.96 0
v -2.24 -8.96 0
v -2.24 -8.639999 0
v -1.92 -8.639999 0
v -2.24 -8.96 0
v -2.56 -8.96 0
v -2.56 -8.639999 0
v -2.24 -8.639999 0
v -2.56 -8.96 0
v -2.88 -8.96 0
v -2.88 -8.639999 0
v -2.56 -8.639999 0
v -1.6 -9.28 0
v -1.92 -9.28 0
v -1.92 -8.96 0
v -1.6 -8.96 0
v -1.92 -9.28 0
v -2.24 -9.28 0
v -2.24 -8.96 0
v -1.92 -8.96 0
v -2.24 -9.28 0
v -2.56 -9.28 0
v -2.56 -8.96 0
v -2.24 -8.96 0
v -2.56 -9.28 0
v -2.88 -9.28 0
v -2.88 -8.96 0
v -2.56 -8.96 0
v -2.88 -9.28 0
v -3.2 -9.28 0
v -3.2 -8.96 0
v -2.88 -8.96 0
v -10.88 -9.28 0
v -11.2 -9.28 0
v -11.2 -8.96 0
v -10.88 -8.96 0
v -11.2 -9.28 0
v -11.52 -9.28 0
v -11.52 -8.96 0
v -11.2 -8.96 0
v -11.52 -9.28 0
v -11.84 -9.28 0
v -11.84 -8.96 0
v -11.52 -8.96 0
v -11.84 -9.28 0
v -12.16 -9.28 0
v -12.16 -8.96 0
v -11.84 -8.96 0
v -12.16 -9.28 0
v -12.48 -9.28 0
v -12.48 -8.96 0
v -12.16 -8.96 0
v -10.88 -9.599999 0
v -11.2 -9.599999 0
v -11.2 -9.28 0
v -10.88 -9.28 0
v -11.2 -9.599999 0
v -11.52 -9.599999 0
v -11.52 -9.28 0
v -11.2 -9.28 0
v -11.52 -9.599999 0
v -11.84 -9.599999 0
v -11.84 -9.28 0
v -11.52 -9.28 0
v -11.84 -9.599999 0
v -12.16 -9.599999 0
v -12.16 -9.28 0
v -11.84 -9.28 0
v -12.16 -9.599999 0
v -12.48 -9.599999 0
v -12.48 -9.28 0
v -12.16 -9.28 0
v -2.24 -11.84 0
v -2.56 -11.84 0
v -2.56 -11.52 0
v -2.24 -11.52 0
v -2.56 -11.84 0
v -2.88 -11.84 0
v -2.88 -11.52 0
v -2.56 -11.52 0
v -2.88 -11.84 0
v -3.2 -11.84 0
v -3.2 -11.52 0
v -2.88 -11.52 0
v -3.2 -11.84 0
v -3.52 -11.84 0
v -3.52 -11.52 0
v -3.2 -11.52 0
v -1.6 -12.16 0
v -1.92 -12.16 0
v -1.92 -11.84 0
v -1.6 -11.84 0
v -1.92 -12.16 0
v -2.24 -12.16 0
v -2.24 -11.84 0
v -1.92 -11.84 0
v -2.24 -12.16 0
v -2.56 -12.16 0
v -2.56 -11.84 0
v -2.24 -11.84 0
v -2.56 -12.16 0
v -2.88 -12.16 0
v -2.88 -11.84 0
v -2.56 -11.84 0
v -2.88 -12.16 0
v -3.2 -12.16 0
v -3.2 -11.84 0
v -2.88 -11.84 0
v -3.2 -12.16 0
v -3.52 -12.16 0
v -3.52 -11.84 0
v -3.2 -11.84 0
v -3.52 -12.16 0
v -3.84 -12.16 0
v -3.84 -11.84 0
v -3.52 -11.84 0
v -8.639999 -12.16 0
v -8.96 -12.16 0
v -8.96 -11.84 0
v -8.639999 -11.84 0
v -8.96 -12.16 0
v -9.28 -12.16 0
v -9.28 -11.84 0
v -8.96 -11.84 0
v -9.28 -12.16 0
v -9.599999 -12.16 0
v -9.599999 -11.84 0
v -9.28 -11.84 0
v -9.599999 -12.16 0
v -9.92 -12.16 0
v -9.92 -11.84 0
v -9.599999 -11.84 0
v -1.6 -12.48 0
v -1.92 -12.48 0
v -1.92 -12.16 0
v -1.6 -12.16 0
v -1.92 -12.48 0
v -2.24 -12.48 0
v -2.24 -12.16 0
v -1.92 -12.16 0
v -2.24 -12.48 0
v -2.56 -12.48 0
v -2.56 -12.16 0
v -2.24 -12.16 0
v -2.56 -12.48 0
v -2.88 -12.48 0
v -2.88 -12.16 0
v -2.56 -12.16 0
v -2.88 -12.48 0
v -3.2 -12.48 0
v -3.2 -12.16 0
v -2.88 -12.16 0
v -3.2 -12.48 0
v -3.52 -12.48 0
v -3.52 -12.16 0
v -3.2 -12.16 0
v -3.52 -12.48 0
v -3.84 -12.48 0
v -3.84 -12.16 0
v -3.52 -12.16 0
v -3.84 -12.48 0
v -4.16 -12.48 0
v -4.16 -12.16 0
v -3.84 -12.16 0
v -8.639999 -12.48 0
v -8.96 -12.48 0
v -8.96 -12.16 0
v -8.639999 -12.16 0
v -8.96 -12.48 0
v -9.28 -12.48 0
v -9.28 -12.16 0
v -8.96 -12.16 0
v -9.28 -12.48 0
v -9.599999 -12.48 0
v -9.599999 -12.16 0
v -9.28 -12.16 0
v -9.599999 -12.48 0
v -9.92 -12.48 0
v -9.92 -12.16 0
v -9.599999 -12.16 0
v -9.92 -12.48 0
v -10.24 -12.48 0
v -10.24 -12.16 0
v -9.92 -12.16 0
v -11.2 -12.48 0
v -11.52 -12.48 0
v -11.52 -12.16 0
v -11.2 -12.16 0
v -11.52 -12.48 0
v -11.84 -12.48 0
v -11.84 -12.16 0
v -11.52 -12.16 0
v -11.84 -12.48 0
v -12.16 -12.48 0
v -12.16 -12.16 0
v -11.84 -12.16 0
v -12.16 -12.48 0
v -12.48 -12.48 0
v -12.48 -12.16 0
v -12.16 -12.16 0
v -11.2 -12.8 0
v -11.52 -12.8 0
v -11.52 -12.48 0
v -11.2 -12.48 0
v -11.52 -12.8 0
v -11.84 -12.8 0
v -11.84 -12.48 0
v -11.52 -12.48 0
v -11.84 -12.8 0
v -12.16 -12.8 0
v -12.16 -12.48 0
v -11.84 -12.48 0
v -12.16 -12.8 0
v -12.48 -12.8 0
v -12.48 -12.48 0
v -12.16 -12.48 0
v -12.48 -12.8 0
v -12.8 -12.8 0
v -12.8 -12.48 0
v -12.48 -12.48 0

# Texture cooridinates (Count = 208)
vt 0.07399577 0.0490368
vt 0.1416491 0.0490368
vt 0.1416491 0.1050788
vt 0.07399577 0.1050788
vt 0.1458774 0.0490368
vt 0.2135307 0.0490368
vt 0.2135307 0.1050788
vt 0.1458774 0.1050788
vt 0.217759 0.0490368
vt 0.2854123 0.0490368
vt 0.2854123 0.1050788
vt 0.217759 0.1050788
vt 0.2896406 0.0490368
vt 0.3572939 0.0490368
vt 0.3572939 0.1050788
vt 0.2896406 0.1050788
vt 0.3615222 0.0490368
vt 0.4291755 0.0490368
vt 0.4291755 0.1050788
vt 0.3615222 0.1050788
vt 0.07399577 0.4063047
vt 0.1416491 0.4063047
vt 0.1416491 0.4623467
vt 0.07399577 0.4623467
vt 0.1458774 0.4063047
vt 0.2135307 0.4063047
vt 0.2135307 0.4623467
vt 0.1458774 0.4623467
vt 0.217759 0.4063047
vt 0.2854123 0.4063047
vt 0.2854123 0.4623467
vt 0.217759 0.4623467
vt 0.2896406 0.4063047
vt 0.3572939 0.4063047
vt 0.3572939 0.4623467
vt 0.2896406 0.4623467
vt 0.3615222 0.4063047
vt 0.4291755 0.4063047
vt 0.4291755 0.4623467
vt 0.3615222 0.4623467
vt 0.577167 0.4063047
vt 0.6448203 0.4063047
vt 0.6448203 0.4623467
vt 0.577167 0.4623467
vt 0.6490486 0.4063047
vt 0.7167019 0.4063047
vt 0.7167019 0.4623467
vt 0.6490486 0.4623467
vt 0.7209302 0.4063047
vt 0.7885835 0.4063047
vt 0.7885835 0.4623467
vt 0.7209302 0.4623467
vt 0.7928118 0.4063047
vt 0.8604651 0.4063047
vt 0.8604651 0.4623467
vt 0.7928118 0.4623467
vt 0.07399577 0.3467601
vt 0.1416491 0.3467601
vt 0.1416491 0.4028021
vt 0.07399577 0.4028021
vt 0.1458774 0.3467601
vt 0.2135307 0.3467601
vt 0.2135307 0.4028021
vt 0.1458774 0.4028021
vt 0.217759 0.3467601
vt 0.2854123 0.3467601
vt 0.2854123 0.4028021
vt 0.217759 0.4028021
vt 0.2896406 0.3467601
vt 0.3572939 0.3467601
vt 0.3572939 0.4028021
vt 0.2896406 0.4028021
vt 0.3615222 0.3467601
vt 0.4291755 0.3467601
vt 0.4291755 0.4028021
vt 0.3615222 0.4028021
vt 0.577167 0.3467601
vt 0.6448203 0.3467601
vt 0.6448203 0.4028021
vt 0.577167 0.4028021
vt 0.6490486 0.3467601
vt 0.7167019 0.3467601
vt 0.7167019 0.4028021
vt 0.6490486 0.4028021
vt 0.7209302 0.3467601
vt 0.7885835 0.3467601
vt 0.7885835 0.4028021
vt 0.7209302 0.4028021
vt 0.7928118 0.3467601
vt 0.8604651 0.3467601
vt 0.8604651 0.4028021
vt 0.7928118 0.4028021
vt 0.8646935 0.3467601
vt 0.9323467 0.3467601
vt 0.9323467 0.4028021
vt 0.8646935 0.4028021
vt 0.577167 0.704028
vt 0.6448203 0.704028
vt 0.6448203 0.7600701
vt 0.577167 0.7600701
vt 0.6490486 0.704028
vt 0.7167019 0.704028
vt 0.7167019 0.7600701
vt 0.6490486 0.7600701
vt 0.7209302 0.704028
vt 0.7885835 0.704028
vt 0.7885835 0.7600701
vt 0.7209302 0.7600701
vt 0.7928118 0.704028
vt 0.8604651 0.704028
vt 0.8604651 0.7600701
vt 0.7928118 0.7600701
vt 0.577167 0.6444833
vt 0.6448203 0.6444833
vt 0.6448203 0.7005254
vt 0.577167 0.7005254
vt 0.6490486 0.6444833
vt 0.7167019 0.6444833
vt 0.7167019 0.7005254
vt 0.6490486 0.7005254
vt 0.7209302 0.6444833
vt 0.7885835 0.6444833
vt 0.7885835 0.7005254
vt 0.7209302 0.7005254
vt 0.7928118 0.6444833
vt 0.8604651 0.6444833
vt 0.8604651 0.7005254
vt 0.7928118 0.7005254
vt 0.8646935 0.6444833
vt 0.9323467 0.6444833
vt 0.9323467 0.7005254
vt 0.8646935 0.7005254
vt 0.1458774 0.7635727
vt 0.2135307 0.7635727
vt 0.2135307 0.8196147
vt 0.1458774 0.8196147
vt 0.217759 0.7635727
vt 0.2854123 0.7635727
vt 0.2854123 0.8196147
vt 0.217759 0.8196147
vt 0.2896406 0.7635727
vt 0.3572939 0.7635727
vt 0.3572939 0.8196147
vt 0.2896406 0.8196147
vt 0.3615222 0.7635727
vt 0.4291755 0.7635727
vt 0.4291755 0.8196147
vt 0.3615222 0.8196147
vt 0.002114165 0.704028
vt 0.06976745 0.704028
vt 0.06976745 0.7600701
vt 0.002114165 0.7600701
vt 0.07399577 0.704028
vt 0.1416491 0.704028
vt 0.1416491 0.7600701
vt 0.07399577 0.7600701
vt 0.1458774 0.704028
vt 0.2135307 0.704028
vt 0.2135307 0.7600701
vt 0.1458774 0.7600701
vt 0.217759 0.704028
vt 0.2854123 0.704028
vt 0.2854123 0.7600701
vt 0.217759 0.7600701
vt 0.2896406 0.704028
vt 0.3572939 0.704028
vt 0.3572939 0.7600701
vt 0.2896406 0.7600701
vt 0.3615222 0.704028
vt 0.4291755 0.704028
vt 0.4291755 0.7600701
vt 0.3615222 0.7600701
vt 0.4334038 0.704028
vt 0.5010571 0.704028
vt 0.5010571 0.7600701
vt 0.4334038 0.7600701
vt 0.002114165 0.6444833
vt 0.06976745 0.6444833
vt 0.06976745 0.7005254
vt 0.002114165 0.7005254
vt 0.07399577 0.6444833
vt 0.1416491 0.6444833
vt 0.1416491 0.7005254
vt 0.07399577 0.7005254
vt 0.1458774 0.6444833
vt 0.2135307 0.6444833
vt 0.2135307 0.7005254
vt 0.1458774 0.7005254
vt 0.217759 0.6444833
vt 0.2854123 0.6444833
vt 0.2854123 0.7005254
vt 0.217759 0.7005254
vt 0.2896406 0.6444833
vt 0.3572939 0.6444833
vt 0.3572939 0.7005254
vt 0.2896406 0.7005254
vt 0.3615222 0.6444833
vt 0.4291755 0.6444833
vt 0.4291755 0.7005254
vt 0.3615222 0.7005254
vt 0.4334038 0.6444833
vt 0.5010571 0.6444833
vt 0.5010571 0.7005254
vt 0.4334038 0.7005254
vt 0.5052854 0.6444833
vt 0.5729387 0.6444833
vt 0.5729387 0.7005254
vt 0.5052854 0.7005254

# Normal
vn 0 0 -1

# Mesh description
g CastleOutDoors_mesh_0006

# Faces
f 1/1/1 2/2/1 3/3/1 4/4/1
f 5/5/1 6/6/1 7/7/1 8/8/1
f 9/9/1 10/10/1 11/11/1 12/12/1
f 13/13/1 14/14/1 15/15/1 16/16/1
f 17/17/1 18/18/1 19/19/1 20/20/1
f 21/21/1 22/22/1 23/23/1 24/24/1
f 25/25/1 26/26/1 27/27/1 28/28/1
f 29/29/1 30/30/1 31/31/1 32/32/1
f 33/33/1 34/34/1 35/35/1 36/36/1
f 37/37/1 38/38/1 39/39/1 40/40/1
f 41/41/1 42/42/1 43/43/1 44/44/1
f 45/45/1 46/46/1 47/47/1 48/48/1
f 49/49/1 50/50/1 51/51/1 52/52/1
f 53/53/1 54/54/1 55/55/1 56/56/1
f 57/57/1 58/58/1 59/59/1 60/60/1
f 61/61/1 62/62/1 63/63/1 64/64/1
f 65/65/1 66/66/1 67/67/1 68/68/1
f 69/69/1 70/70/1 71/71/1 72/72/1
f 73/73/1 74/74/1 75/75/1 76/76/1
f 77/77/1 78/78/1 79/79/1 80/80/1
f 81/81/1 82/82/1 83/83/1 84/84/1
f 85/85/1 86/86/1 87/87/1 88/88/1
f 89/89/1 90/90/1 91/91/1 92/92/1
f 93/93/1 94/94/1 95/95/1 96/96/1
f 97/97/1 98/98/1 99/99/1 100/100/1
f 101/101/1 102/102/1 103/103/1 104/104/1
f 105/105/1 106/106/1 107/107/1 108/108/1
f 109/109/1 110/110/1 111/111/1 112/112/1
f 113/113/1 114/114/1 115/115/1 116/116/1
f 117/117/1 118/118/1 119/119/1 120/120/1
f 121/121/1 122/122/1 123/123/1 124/124/1
f 125/125/1 126/126/1 127/127/1 128/128/1
f 129/129/1 130/130/1 131/131/1 132/132/1
f 133/21/1 134/22/1 135/23/1 136/24/1
f 137/25/1 138/26/1 139/27/1 140/28/1
f 141/29/1 142/30/1 143/31/1 144/32/1
f 145/33/1 146/34/1 147/35/1 148/36/1
f 149/37/1 150/38/1 151/39/1 152/40/1
f 153/57/1 154/58/1 155/59/1 156/60/1
f 157/61/1 158/62/1 159/63/1 160/64/1
f 161/65/1 162/66/1 163/67/1 164/68/1
f 165/69/1 166/70/1 167/71/1 168/72/1
f 169/73/1 170/74/1 171/75/1 172/76/1
f 173/133/1 174/134/1 175/135/1 176/136/1
f 177/137/1 178/138/1 179/139/1 180/140/1
f 181/141/1 182/142/1 183/143/1 184/144/1
f 185/145/1 186/146/1 187/147/1 188/148/1
f 189/149/1 190/150/1 191/151/1 192/152/1
f 193/153/1 194/154/1 195/155/1 196/156/1
f 197/157/1 198/158/1 199/159/1 200/160/1
f 201/161/1 202/162/1 203/163/1 204/164/1
f 205/165/1 206/166/1 207/167/1 208/168/1
f 209/169/1 210/170/1 211/171/1 212/172/1
f 213/173/1 214/174/1 215/175/1 216/176/1
f 217/41/1 218/42/1 219/43/1 220/44/1
f 221/45/1 222/46/1 223/47/1 224/48/1
f 225/49/1 226/50/1 227/51/1 228/52/1
f 229/53/1 230/54/1 231/55/1 232/56/1
f 233/177/1 234/178/1 235/179/1 236/180/1
f 237/181/1 238/182/1 239/183/1 240/184/1
f 241/185/1 242/186/1 243/187/1 244/188/1
f 245/189/1 246/190/1 247/191/1 248/192/1
f 249/193/1 250/194/1 251/195/1 252/196/1
f 253/197/1 254/198/1 255/199/1 256/200/1
f 257/201/1 258/202/1 259/203/1 260/204/1
f 261/205/1 262/206/1 263/207/1 264/208/1
f 265/77/1 266/78/1 267/79/1 268/80/1
f 269/81/1 270/82/1 271/83/1 272/84/1
f 273/85/1 274/86/1 275/87/1 276/88/1
f 277/89/1 278/90/1 279/91/1 280/92/1
f 281/93/1 282/94/1 283/95/1 284/96/1
f 285/97/1 286/98/1 287/99/1 288/100/1
f 289/101/1 290/102/1 291/103/1 292/104/1
f 293/105/1 294/106/1 295/107/1 296/108/1
f 297/109/1 298/110/1 299/111/1 300/112/1
f 301/113/1 302/114/1 303/115/1 304/116/1
f 305/117/1 306/118/1 307/119/1 308/120/1
f 309/121/1 310/122/1 311/123/1 312/124/1
f 313/125/1 314/126/1 315/127/1 316/128/1
f 317/129/1 318/130/1 319/131/1 320/132/1

