# Tiled2Unity generated file. Do not modify by hand.
# Wavefront file for 'CastleOutDoors_mesh_0009.obj'

# Vertices (Count = 256)
v -4.16 -0.32 0
v -4.48 -0.32 0
v -4.48 0 0
v -4.16 0 0
v -4.48 -0.32 0
v -4.8 -0.32 0
v -4.8 0 0
v -4.48 0 0
v -4.8 -0.32 0
v -5.12 -0.32 0
v -5.12 0 0
v -4.8 0 0
v -5.76 -0.32 0
v -6.08 -0.32 0
v -6.08 0 0
v -5.76 0 0
v -8.32 -0.32 0
v -8.639999 -0.32 0
v -8.639999 0 0
v -8.32 0 0
v -9.28 -0.32 0
v -9.599999 -0.32 0
v -9.599999 0 0
v -9.28 0 0
v -9.599999 -0.32 0
v -9.92 -0.32 0
v -9.92 0 0
v -9.599999 0 0
v -9.92 -0.32 0
v -10.24 -0.32 0
v -10.24 0 0
v -9.92 0 0
v -4.16 -0.64 0
v -4.48 -0.64 0
v -4.48 -0.32 0
v -4.16 -0.32 0
v -4.48 -0.64 0
v -4.8 -0.64 0
v -4.8 -0.32 0
v -4.48 -0.32 0
v -4.8 -0.64 0
v -5.12 -0.64 0
v -5.12 -0.32 0
v -4.8 -0.32 0
v -9.28 -0.64 0
v -9.599999 -0.64 0
v -9.599999 -0.32 0
v -9.28 -0.32 0
v -9.599999 -0.64 0
v -9.92 -0.64 0
v -9.92 -0.32 0
v -9.599999 -0.32 0
v -9.92 -0.64 0
v -10.24 -0.64 0
v -10.24 -0.32 0
v -9.92 -0.32 0
v -4.16 -0.96 0
v -4.48 -0.96 0
v -4.48 -0.64 0
v -4.16 -0.64 0
v -4.48 -0.96 0
v -4.8 -0.96 0
v -4.8 -0.64 0
v -4.48 -0.64 0
v -4.8 -0.96 0
v -5.12 -0.96 0
v -5.12 -0.64 0
v -4.8 -0.64 0
v -9.28 -0.96 0
v -9.599999 -0.96 0
v -9.599999 -0.64 0
v -9.28 -0.64 0
v -9.599999 -0.96 0
v -9.92 -0.96 0
v -9.92 -0.64 0
v -9.599999 -0.64 0
v -9.92 -0.96 0
v -10.24 -0.96 0
v -10.24 -0.64 0
v -9.92 -0.64 0
v -4.16 -1.28 0
v -4.48 -1.28 0
v -4.48 -0.96 0
v -4.16 -0.96 0
v -4.48 -1.28 0
v -4.8 -1.28 0
v -4.8 -0.96 0
v -4.48 -0.96 0
v -4.8 -1.28 0
v -5.12 -1.28 0
v -5.12 -0.96 0
v -4.8 -0.96 0
v -9.28 -1.28 0
v -9.599999 -1.28 0
v -9.599999 -0.96 0
v -9.28 -0.96 0
v -9.599999 -1.28 0
v -9.92 -1.28 0
v -9.92 -0.96 0
v -9.599999 -0.96 0
v -9.92 -1.28 0
v -10.24 -1.28 0
v -10.24 -0.96 0
v -9.92 -0.96 0
v -4.16 -1.6 0
v -4.48 -1.6 0
v -4.48 -1.28 0
v -4.16 -1.28 0
v -4.48 -1.6 0
v -4.8 -1.6 0
v -4.8 -1.28 0
v -4.48 -1.28 0
v -4.8 -1.6 0
v -5.12 -1.6 0
v -5.12 -1.28 0
v -4.8 -1.28 0
v -5.12 -1.6 0
v -5.44 -1.6 0
v -5.44 -1.28 0
v -5.12 -1.28 0
v -5.44 -1.6 0
v -5.76 -1.6 0
v -5.76 -1.28 0
v -5.44 -1.28 0
v -5.76 -1.6 0
v -6.08 -1.6 0
v -6.08 -1.28 0
v -5.76 -1.28 0
v -6.08 -1.6 0
v -6.4 -1.6 0
v -6.4 -1.28 0
v -6.08 -1.28 0
v -6.4 -1.6 0
v -6.72 -1.6 0
v -6.72 -1.28 0
v -6.4 -1.28 0
v -6.72 -1.6 0
v -7.04 -1.6 0
v -7.04 -1.28 0
v -6.72 -1.28 0
v -7.04 -1.6 0
v -7.36 -1.6 0
v -7.36 -1.28 0
v -7.04 -1.28 0
v -7.36 -1.6 0
v -7.68 -1.6 0
v -7.68 -1.28 0
v -7.36 -1.28 0
v -7.68 -1.6 0
v -8 -1.6 0
v -8 -1.28 0
v -7.68 -1.28 0
v -8 -1.6 0
v -8.32 -1.6 0
v -8.32 -1.28 0
v -8 -1.28 0
v -8.32 -1.6 0
v -8.639999 -1.6 0
v -8.639999 -1.28 0
v -8.32 -1.28 0
v -8.639999 -1.6 0
v -8.96 -1.6 0
v -8.96 -1.28 0
v -8.639999 -1.28 0
v -8.96 -1.6 0
v -9.28 -1.6 0
v -9.28 -1.28 0
v -8.96 -1.28 0
v -9.28 -1.6 0
v -9.599999 -1.6 0
v -9.599999 -1.28 0
v -9.28 -1.28 0
v -9.599999 -1.6 0
v -9.92 -1.6 0
v -9.92 -1.28 0
v -9.599999 -1.28 0
v -9.92 -1.6 0
v -10.24 -1.6 0
v -10.24 -1.28 0
v -9.92 -1.28 0
v -4.16 -1.92 0
v -4.48 -1.92 0
v -4.48 -1.6 0
v -4.16 -1.6 0
v -4.48 -1.92 0
v -4.8 -1.92 0
v -4.8 -1.6 0
v -4.48 -1.6 0
v -4.8 -1.92 0
v -5.12 -1.92 0
v -5.12 -1.6 0
v -4.8 -1.6 0
v -5.12 -1.92 0
v -5.44 -1.92 0
v -5.44 -1.6 0
v -5.12 -1.6 0
v -5.44 -1.92 0
v -5.76 -1.92 0
v -5.76 -1.6 0
v -5.44 -1.6 0
v -5.76 -1.92 0
v -6.08 -1.92 0
v -6.08 -1.6 0
v -5.76 -1.6 0
v -6.08 -1.92 0
v -6.4 -1.92 0
v -6.4 -1.6 0
v -6.08 -1.6 0
v -6.4 -1.92 0
v -6.72 -1.92 0
v -6.72 -1.6 0
v -6.4 -1.6 0
v -6.72 -1.92 0
v -7.04 -1.92 0
v -7.04 -1.6 0
v -6.72 -1.6 0
v -7.04 -1.92 0
v -7.36 -1.92 0
v -7.36 -1.6 0
v -7.04 -1.6 0
v -7.36 -1.92 0
v -7.68 -1.92 0
v -7.68 -1.6 0
v -7.36 -1.6 0
v -7.68 -1.92 0
v -8 -1.92 0
v -8 -1.6 0
v -7.68 -1.6 0
v -8 -1.92 0
v -8.32 -1.92 0
v -8.32 -1.6 0
v -8 -1.6 0
v -8.32 -1.92 0
v -8.639999 -1.92 0
v -8.639999 -1.6 0
v -8.32 -1.6 0
v -8.639999 -1.92 0
v -8.96 -1.92 0
v -8.96 -1.6 0
v -8.639999 -1.6 0
v -8.96 -1.92 0
v -9.28 -1.92 0
v -9.28 -1.6 0
v -8.96 -1.6 0
v -9.28 -1.92 0
v -9.599999 -1.92 0
v -9.599999 -1.6 0
v -9.28 -1.6 0
v -9.599999 -1.92 0
v -9.92 -1.92 0
v -9.92 -1.6 0
v -9.599999 -1.6 0
v -9.92 -1.92 0
v -10.24 -1.92 0
v -10.24 -1.6 0
v -9.92 -1.6 0

# Texture cooridinates (Count = 16)
vt 0.5643382 0.3143382
vt 0.6231618 0.3143382
vt 0.6231618 0.3731618
vt 0.5643382 0.3731618
vt 0.5643382 0.2518382
vt 0.6231618 0.2518382
vt 0.6231618 0.3106618
vt 0.5643382 0.3106618
vt 0.4393382 0.2518382
vt 0.4981618 0.2518382
vt 0.4981618 0.3106618
vt 0.4393382 0.3106618
vt 0.4393382 0.8768382
vt 0.4981618 0.8768382
vt 0.4981618 0.9356618
vt 0.4393382 0.9356618

# Normal
vn 0 0 -1

# Mesh description
g CastleOutDoors_mesh_0009

# Faces
f 1/1/1 2/2/1 3/3/1 4/4/1
f 5/5/1 6/6/1 7/7/1 8/8/1
f 9/9/1 10/10/1 11/11/1 12/12/1
f 13/13/1 14/14/1 15/15/1 16/16/1
f 17/13/1 18/14/1 19/15/1 20/16/1
f 21/9/1 22/10/1 23/11/1 24/12/1
f 25/5/1 26/6/1 27/7/1 28/8/1
f 29/1/1 30/2/1 31/3/1 32/4/1
f 33/1/1 34/2/1 35/3/1 36/4/1
f 37/1/1 38/2/1 39/3/1 40/4/1
f 41/9/1 42/10/1 43/11/1 44/12/1
f 45/9/1 46/10/1 47/11/1 48/12/1
f 49/1/1 50/2/1 51/3/1 52/4/1
f 53/1/1 54/2/1 55/3/1 56/4/1
f 57/5/1 58/6/1 59/7/1 60/8/1
f 61/1/1 62/2/1 63/3/1 64/4/1
f 65/9/1 66/10/1 67/11/1 68/12/1
f 69/9/1 70/10/1 71/11/1 72/12/1
f 73/5/1 74/6/1 75/7/1 76/8/1
f 77/1/1 78/2/1 79/3/1 80/4/1
f 81/5/1 82/6/1 83/7/1 84/8/1
f 85/5/1 86/6/1 87/7/1 88/8/1
f 89/9/1 90/10/1 91/11/1 92/12/1
f 93/9/1 94/10/1 95/11/1 96/12/1
f 97/5/1 98/6/1 99/7/1 100/8/1
f 101/1/1 102/2/1 103/3/1 104/4/1
f 105/1/1 106/2/1 107/3/1 108/4/1
f 109/5/1 110/6/1 111/7/1 112/8/1
f 113/1/1 114/2/1 115/3/1 116/4/1
f 117/1/1 118/2/1 119/3/1 120/4/1
f 121/5/1 122/6/1 123/7/1 124/8/1
f 125/5/1 126/6/1 127/7/1 128/8/1
f 129/5/1 130/6/1 131/7/1 132/8/1
f 133/1/1 134/2/1 135/3/1 136/4/1
f 137/5/1 138/6/1 139/7/1 140/8/1
f 141/1/1 142/2/1 143/3/1 144/4/1
f 145/5/1 146/6/1 147/7/1 148/8/1
f 149/5/1 150/6/1 151/7/1 152/8/1
f 153/5/1 154/6/1 155/7/1 156/8/1
f 157/5/1 158/6/1 159/7/1 160/8/1
f 161/5/1 162/6/1 163/7/1 164/8/1
f 165/1/1 166/2/1 167/3/1 168/4/1
f 169/1/1 170/2/1 171/3/1 172/4/1
f 173/1/1 174/2/1 175/3/1 176/4/1
f 177/5/1 178/6/1 179/7/1 180/8/1
f 181/1/1 182/2/1 183/3/1 184/4/1
f 185/5/1 186/6/1 187/7/1 188/8/1
f 189/1/1 190/2/1 191/3/1 192/4/1
f 193/1/1 194/2/1 195/3/1 196/4/1
f 197/5/1 198/6/1 199/7/1 200/8/1
f 201/5/1 202/6/1 203/7/1 204/8/1
f 205/1/1 206/2/1 207/3/1 208/4/1
f 209/1/1 210/2/1 211/3/1 212/4/1
f 213/1/1 214/2/1 215/3/1 216/4/1
f 217/1/1 218/2/1 219/3/1 220/4/1
f 221/5/1 222/6/1 223/7/1 224/8/1
f 225/5/1 226/6/1 227/7/1 228/8/1
f 229/5/1 230/6/1 231/7/1 232/8/1
f 233/1/1 234/2/1 235/3/1 236/4/1
f 237/5/1 238/6/1 239/7/1 240/8/1
f 241/1/1 242/2/1 243/3/1 244/4/1
f 245/5/1 246/6/1 247/7/1 248/8/1
f 249/1/1 250/2/1 251/3/1 252/4/1
f 253/1/1 254/2/1 255/3/1 256/4/1

