# Tiled2Unity generated file. Do not modify by hand.
# Wavefront file for 'Forest_mesh_0004.obj'

# Vertices (Count = 8)
v -5.44 -1.92 0
v -5.76 -1.92 0
v -5.76 -1.6 0
v -5.44 -1.6 0
v -5.76 -1.92 0
v -6.08 -1.92 0
v -6.08 -1.6 0
v -5.76 -1.6 0

# Texture cooridinates (Count = 8)
vt 0.8759191 0.4071691
vt 0.9053309 0.4071691
vt 0.9053309 0.4365809
vt 0.8759191 0.4365809
vt 0.9071691 0.4071691
vt 0.9365809 0.4071691
vt 0.9365809 0.4365809
vt 0.9071691 0.4365809

# Normal
vn 0 0 -1

# Mesh description
g Forest_mesh_0004

# Faces
f 1/1/1 2/2/1 3/3/1 4/4/1
f 5/5/1 6/6/1 7/7/1 8/8/1

