# Tiled2Unity generated file. Do not modify by hand.
# Wavefront file for 'Forest_mesh_0005.obj'

# Vertices (Count = 340)
v -1.28 -0.32 0
v -1.6 -0.32 0
v -1.6 0 0
v -1.28 0 0
v -1.6 -0.32 0
v -1.92 -0.32 0
v -1.92 0 0
v -1.6 0 0
v -1.92 -0.32 0
v -2.24 -0.32 0
v -2.24 0 0
v -1.92 0 0
v -2.56 -0.32 0
v -2.88 -0.32 0
v -2.88 0 0
v -2.56 0 0
v -2.88 -0.32 0
v -3.2 -0.32 0
v -3.2 0 0
v -2.88 0 0
v -3.2 -0.32 0
v -3.52 -0.32 0
v -3.52 0 0
v -3.2 0 0
v -1.28 -0.64 0
v -1.6 -0.64 0
v -1.6 -0.32 0
v -1.28 -0.32 0
v -1.6 -0.64 0
v -1.92 -0.64 0
v -1.92 -0.32 0
v -1.6 -0.32 0
v -1.92 -0.64 0
v -2.24 -0.64 0
v -2.24 -0.32 0
v -1.92 -0.32 0
v -2.56 -0.64 0
v -2.88 -0.64 0
v -2.88 -0.32 0
v -2.56 -0.32 0
v -2.88 -0.64 0
v -3.2 -0.64 0
v -3.2 -0.32 0
v -2.88 -0.32 0
v -3.2 -0.64 0
v -3.52 -0.64 0
v -3.52 -0.32 0
v -3.2 -0.32 0
v -1.28 -0.96 0
v -1.6 -0.96 0
v -1.6 -0.64 0
v -1.28 -0.64 0
v -1.6 -0.96 0
v -1.92 -0.96 0
v -1.92 -0.64 0
v -1.6 -0.64 0
v -1.92 -0.96 0
v -2.24 -0.96 0
v -2.24 -0.64 0
v -1.92 -0.64 0
v -5.12 -0.96 0
v -5.44 -0.96 0
v -5.44 -0.64 0
v -5.12 -0.64 0
v -5.44 -0.96 0
v -5.76 -0.96 0
v -5.76 -0.64 0
v -5.44 -0.64 0
v -5.76 -0.96 0
v -6.08 -0.96 0
v -6.08 -0.64 0
v -5.76 -0.64 0
v -4.16 -1.28 0
v -4.48 -1.28 0
v -4.48 -0.96 0
v -4.16 -0.96 0
v -4.48 -1.28 0
v -4.8 -1.28 0
v -4.8 -0.96 0
v -4.48 -0.96 0
v -4.8 -1.28 0
v -5.12 -1.28 0
v -5.12 -0.96 0
v -4.8 -0.96 0
v -5.12 -1.28 0
v -5.44 -1.28 0
v -5.44 -0.96 0
v -5.12 -0.96 0
v -5.44 -1.28 0
v -5.76 -1.28 0
v -5.76 -0.96 0
v -5.44 -0.96 0
v -5.76 -1.28 0
v -6.08 -1.28 0
v -6.08 -0.96 0
v -5.76 -0.96 0
v -4.16 -1.6 0
v -4.48 -1.6 0
v -4.48 -1.28 0
v -4.16 -1.28 0
v -4.48 -1.6 0
v -4.8 -1.6 0
v -4.8 -1.28 0
v -4.48 -1.28 0
v -4.8 -1.6 0
v -5.12 -1.6 0
v -5.12 -1.28 0
v -4.8 -1.28 0
v -5.12 -1.6 0
v -5.44 -1.6 0
v -5.44 -1.28 0
v -5.12 -1.28 0
v -5.44 -1.6 0
v -5.76 -1.6 0
v -5.76 -1.28 0
v -5.44 -1.28 0
v -5.76 -1.6 0
v -6.08 -1.6 0
v -6.08 -1.28 0
v -5.76 -1.28 0
v 0 -1.92 0
v -0.32 -1.92 0
v -0.32 -1.6 0
v 0 -1.6 0
v -0.32 -1.92 0
v -0.64 -1.92 0
v -0.64 -1.6 0
v -0.32 -1.6 0
v -0.64 -1.92 0
v -0.96 -1.92 0
v -0.96 -1.6 0
v -0.64 -1.6 0
v -4.16 -1.92 0
v -4.48 -1.92 0
v -4.48 -1.6 0
v -4.16 -1.6 0
v -4.48 -1.92 0
v -4.8 -1.92 0
v -4.8 -1.6 0
v -4.48 -1.6 0
v -4.8 -1.92 0
v -5.12 -1.92 0
v -5.12 -1.6 0
v -4.8 -1.6 0
v -5.12 -1.92 0
v -5.44 -1.92 0
v -5.44 -1.6 0
v -5.12 -1.6 0
v -5.44 -1.92 0
v -5.76 -1.92 0
v -5.76 -1.6 0
v -5.44 -1.6 0
v -5.76 -1.92 0
v -6.08 -1.92 0
v -6.08 -1.6 0
v -5.76 -1.6 0
v -6.08 -1.92 0
v -6.4 -1.92 0
v -6.4 -1.6 0
v -6.08 -1.6 0
v 0 -2.24 0
v -0.32 -2.24 0
v -0.32 -1.92 0
v 0 -1.92 0
v -0.32 -2.24 0
v -0.64 -2.24 0
v -0.64 -1.92 0
v -0.32 -1.92 0
v -0.64 -2.24 0
v -0.96 -2.24 0
v -0.96 -1.92 0
v -0.64 -1.92 0
v -4.16 -2.24 0
v -4.48 -2.24 0
v -4.48 -1.92 0
v -4.16 -1.92 0
v -4.48 -2.24 0
v -4.8 -2.24 0
v -4.8 -1.92 0
v -4.48 -1.92 0
v -4.8 -2.24 0
v -5.12 -2.24 0
v -5.12 -1.92 0
v -4.8 -1.92 0
v -5.44 -2.24 0
v -5.76 -2.24 0
v -5.76 -1.92 0
v -5.44 -1.92 0
v -5.76 -2.24 0
v -6.08 -2.24 0
v -6.08 -1.92 0
v -5.76 -1.92 0
v -6.08 -2.24 0
v -6.4 -2.24 0
v -6.4 -1.92 0
v -6.08 -1.92 0
v 0 -2.56 0
v -0.32 -2.56 0
v -0.32 -2.24 0
v 0 -2.24 0
v -0.32 -2.56 0
v -0.64 -2.56 0
v -0.64 -2.24 0
v -0.32 -2.24 0
v -0.64 -2.56 0
v -0.96 -2.56 0
v -0.96 -2.24 0
v -0.64 -2.24 0
v -1.92 -2.56 0
v -2.24 -2.56 0
v -2.24 -2.24 0
v -1.92 -2.24 0
v -2.24 -2.56 0
v -2.56 -2.56 0
v -2.56 -2.24 0
v -2.24 -2.24 0
v -2.56 -2.56 0
v -2.88 -2.56 0
v -2.88 -2.24 0
v -2.56 -2.24 0
v -5.44 -2.56 0
v -5.76 -2.56 0
v -5.76 -2.24 0
v -5.44 -2.24 0
v -5.76 -2.56 0
v -6.08 -2.56 0
v -6.08 -2.24 0
v -5.76 -2.24 0
v -6.08 -2.56 0
v -6.4 -2.56 0
v -6.4 -2.24 0
v -6.08 -2.24 0
v -0.64 -2.88 0
v -0.96 -2.88 0
v -0.96 -2.56 0
v -0.64 -2.56 0
v -0.96 -2.88 0
v -1.28 -2.88 0
v -1.28 -2.56 0
v -0.96 -2.56 0
v -1.28 -2.88 0
v -1.6 -2.88 0
v -1.6 -2.56 0
v -1.28 -2.56 0
v -1.92 -2.88 0
v -2.24 -2.88 0
v -2.24 -2.56 0
v -1.92 -2.56 0
v -2.24 -2.88 0
v -2.56 -2.88 0
v -2.56 -2.56 0
v -2.24 -2.56 0
v -2.56 -2.88 0
v -2.88 -2.88 0
v -2.88 -2.56 0
v -2.56 -2.56 0
v -0.64 -3.2 0
v -0.96 -3.2 0
v -0.96 -2.88 0
v -0.64 -2.88 0
v -0.96 -3.2 0
v -1.28 -3.2 0
v -1.28 -2.88 0
v -0.96 -2.88 0
v -1.28 -3.2 0
v -1.6 -3.2 0
v -1.6 -2.88 0
v -1.28 -2.88 0
v -1.92 -3.2 0
v -2.24 -3.2 0
v -2.24 -2.88 0
v -1.92 -2.88 0
v -2.24 -3.2 0
v -2.56 -3.2 0
v -2.56 -2.88 0
v -2.24 -2.88 0
v -2.56 -3.2 0
v -2.88 -3.2 0
v -2.88 -2.88 0
v -2.56 -2.88 0
v -3.2 -3.2 0
v -3.52 -3.2 0
v -3.52 -2.88 0
v -3.2 -2.88 0
v -3.52 -3.2 0
v -3.84 -3.2 0
v -3.84 -2.88 0
v -3.52 -2.88 0
v -3.84 -3.2 0
v -4.16 -3.2 0
v -4.16 -2.88 0
v -3.84 -2.88 0
v -0.64 -3.52 0
v -0.96 -3.52 0
v -0.96 -3.2 0
v -0.64 -3.2 0
v -0.96 -3.52 0
v -1.28 -3.52 0
v -1.28 -3.2 0
v -0.96 -3.2 0
v -1.28 -3.52 0
v -1.6 -3.52 0
v -1.6 -3.2 0
v -1.28 -3.2 0
v -3.2 -3.52 0
v -3.52 -3.52 0
v -3.52 -3.2 0
v -3.2 -3.2 0
v -3.52 -3.52 0
v -3.84 -3.52 0
v -3.84 -3.2 0
v -3.52 -3.2 0
v -3.84 -3.52 0
v -4.16 -3.52 0
v -4.16 -3.2 0
v -3.84 -3.2 0
v -0.64 -3.84 0
v -0.96 -3.84 0
v -0.96 -3.52 0
v -0.64 -3.52 0
v -0.96 -3.84 0
v -1.28 -3.84 0
v -1.28 -3.52 0
v -0.96 -3.52 0
v -1.28 -3.84 0
v -1.6 -3.84 0
v -1.6 -3.52 0
v -1.28 -3.52 0
v -3.2 -3.84 0
v -3.52 -3.84 0
v -3.52 -3.52 0
v -3.2 -3.52 0
v -3.52 -3.84 0
v -3.84 -3.84 0
v -3.84 -3.52 0
v -3.52 -3.52 0
v -3.84 -3.84 0
v -4.16 -3.84 0
v -4.16 -3.52 0
v -3.84 -3.52 0

# Texture cooridinates (Count = 84)
vt 0.8446691 0.4696691
vt 0.8740809 0.4696691
vt 0.8740809 0.4990809
vt 0.8446691 0.4990809
vt 0.8759191 0.4696691
vt 0.9053309 0.4696691
vt 0.9053309 0.4990809
vt 0.8759191 0.4990809
vt 0.9071691 0.4696691
vt 0.9365809 0.4696691
vt 0.9365809 0.4990809
vt 0.9071691 0.4990809
vt 0.8446691 0.5634191
vt 0.8740809 0.5634191
vt 0.8740809 0.5928309
vt 0.8446691 0.5928309
vt 0.8759191 0.5634191
vt 0.9053309 0.5634191
vt 0.9053309 0.5928309
vt 0.8759191 0.5928309
vt 0.9071691 0.5634191
vt 0.9365809 0.5634191
vt 0.9365809 0.5928309
vt 0.9071691 0.5928309
vt 0.8446691 0.4384191
vt 0.8740809 0.4384191
vt 0.8740809 0.4678309
vt 0.8446691 0.4678309
vt 0.8759191 0.4384191
vt 0.9053309 0.4384191
vt 0.9053309 0.4678309
vt 0.8759191 0.4678309
vt 0.9071691 0.4384191
vt 0.9365809 0.4384191
vt 0.9365809 0.4678309
vt 0.9071691 0.4678309
vt 0.8446691 0.5321691
vt 0.8740809 0.5321691
vt 0.8740809 0.5615809
vt 0.8446691 0.5615809
vt 0.8759191 0.5321691
vt 0.9053309 0.5321691
vt 0.9053309 0.5615809
vt 0.8759191 0.5615809
vt 0.9071691 0.5321691
vt 0.9365809 0.5321691
vt 0.9365809 0.5615809
vt 0.9071691 0.5615809
vt 0.8446691 0.4071691
vt 0.8740809 0.4071691
vt 0.8740809 0.4365809
vt 0.8446691 0.4365809
vt 0.8759191 0.4071691
vt 0.9053309 0.4071691
vt 0.9053309 0.4365809
vt 0.8759191 0.4365809
vt 0.9071691 0.4071691
vt 0.9365809 0.4071691
vt 0.9365809 0.4365809
vt 0.9071691 0.4365809
vt 0.8446691 0.5009191
vt 0.8740809 0.5009191
vt 0.8740809 0.5303309
vt 0.8446691 0.5303309
vt 0.8759191 0.5009191
vt 0.9053309 0.5009191
vt 0.9053309 0.5303309
vt 0.8759191 0.5303309
vt 0.9071691 0.5009191
vt 0.9365809 0.5009191
vt 0.9365809 0.5303309
vt 0.9071691 0.5303309
vt 0.8446691 0.5946691
vt 0.8740809 0.5946691
vt 0.8740809 0.6240809
vt 0.8446691 0.6240809
vt 0.8759191 0.5946691
vt 0.9053309 0.5946691
vt 0.9053309 0.6240809
vt 0.8759191 0.6240809
vt 0.9071691 0.5946691
vt 0.9365809 0.5946691
vt 0.9365809 0.6240809
vt 0.9071691 0.6240809

# Normal
vn 0 0 -1

# Mesh description
g Forest_mesh_0005

# Faces
f 1/1/1 2/2/1 3/3/1 4/4/1
f 5/5/1 6/6/1 7/7/1 8/8/1
f 9/9/1 10/10/1 11/11/1 12/12/1
f 13/13/1 14/14/1 15/15/1 16/16/1
f 17/17/1 18/18/1 19/19/1 20/20/1
f 21/21/1 22/22/1 23/23/1 24/24/1
f 25/25/1 26/26/1 27/27/1 28/28/1
f 29/29/1 30/30/1 31/31/1 32/32/1
f 33/33/1 34/34/1 35/35/1 36/36/1
f 37/37/1 38/38/1 39/39/1 40/40/1
f 41/41/1 42/42/1 43/43/1 44/44/1
f 45/45/1 46/46/1 47/47/1 48/48/1
f 49/49/1 50/50/1 51/51/1 52/52/1
f 53/53/1 54/54/1 55/55/1 56/56/1
f 57/57/1 58/58/1 59/59/1 60/60/1
f 61/61/1 62/62/1 63/63/1 64/64/1
f 65/65/1 66/66/1 67/67/1 68/68/1
f 69/69/1 70/70/1 71/71/1 72/72/1
f 73/61/1 74/62/1 75/63/1 76/64/1
f 77/65/1 78/66/1 79/67/1 80/68/1
f 81/69/1 82/70/1 83/71/1 84/72/1
f 85/1/1 86/2/1 87/3/1 88/4/1
f 89/5/1 90/6/1 91/7/1 92/8/1
f 93/9/1 94/10/1 95/11/1 96/12/1
f 97/1/1 98/2/1 99/3/1 100/4/1
f 101/5/1 102/6/1 103/7/1 104/8/1
f 105/9/1 106/10/1 107/11/1 108/12/1
f 109/25/1 110/26/1 111/27/1 112/28/1
f 113/29/1 114/30/1 115/31/1 116/32/1
f 117/33/1 118/34/1 119/35/1 120/36/1
f 121/73/1 122/74/1 123/75/1 124/76/1
f 125/77/1 126/78/1 127/79/1 128/80/1
f 129/81/1 130/82/1 131/83/1 132/84/1
f 133/25/1 134/26/1 135/27/1 136/28/1
f 137/29/1 138/30/1 139/31/1 140/32/1
f 141/33/1 142/34/1 143/35/1 144/36/1
f 145/49/1 146/50/1 147/51/1 148/52/1
f 149/73/1 150/74/1 151/75/1 152/76/1
f 153/77/1 154/78/1 155/79/1 156/80/1
f 157/81/1 158/82/1 159/83/1 160/84/1
f 161/13/1 162/14/1 163/15/1 164/16/1
f 165/17/1 166/18/1 167/19/1 168/20/1
f 169/21/1 170/22/1 171/23/1 172/24/1
f 173/49/1 174/50/1 175/51/1 176/52/1
f 177/53/1 178/54/1 179/55/1 180/56/1
f 181/57/1 182/58/1 183/59/1 184/60/1
f 185/13/1 186/14/1 187/15/1 188/16/1
f 189/17/1 190/18/1 191/19/1 192/20/1
f 193/21/1 194/22/1 195/23/1 196/24/1
f 197/37/1 198/38/1 199/39/1 200/40/1
f 201/41/1 202/42/1 203/43/1 204/44/1
f 205/45/1 206/46/1 207/47/1 208/48/1
f 209/73/1 210/74/1 211/75/1 212/76/1
f 213/77/1 214/78/1 215/79/1 216/80/1
f 217/81/1 218/82/1 219/83/1 220/84/1
f 221/37/1 222/38/1 223/39/1 224/40/1
f 225/41/1 226/42/1 227/43/1 228/44/1
f 229/45/1 230/46/1 231/47/1 232/48/1
f 233/61/1 234/62/1 235/63/1 236/64/1
f 237/65/1 238/66/1 239/67/1 240/68/1
f 241/69/1 242/70/1 243/71/1 244/72/1
f 245/13/1 246/14/1 247/15/1 248/16/1
f 249/17/1 250/18/1 251/19/1 252/20/1
f 253/21/1 254/22/1 255/23/1 256/24/1
f 257/1/1 258/2/1 259/3/1 260/4/1
f 261/5/1 262/6/1 263/7/1 264/8/1
f 265/9/1 266/10/1 267/11/1 268/12/1
f 269/37/1 270/38/1 271/39/1 272/40/1
f 273/41/1 274/42/1 275/43/1 276/44/1
f 277/45/1 278/46/1 279/47/1 280/48/1
f 281/73/1 282/74/1 283/75/1 284/76/1
f 285/77/1 286/78/1 287/79/1 288/80/1
f 289/81/1 290/82/1 291/83/1 292/84/1
f 293/25/1 294/26/1 295/27/1 296/28/1
f 297/29/1 298/30/1 299/31/1 300/32/1
f 301/33/1 302/34/1 303/35/1 304/36/1
f 305/13/1 306/14/1 307/15/1 308/16/1
f 309/17/1 310/18/1 311/19/1 312/20/1
f 313/21/1 314/22/1 315/23/1 316/24/1
f 317/49/1 318/50/1 319/51/1 320/52/1
f 321/53/1 322/54/1 323/55/1 324/56/1
f 325/57/1 326/58/1 327/59/1 328/60/1
f 329/37/1 330/38/1 331/39/1 332/40/1
f 333/41/1 334/42/1 335/43/1 336/44/1
f 337/45/1 338/46/1 339/47/1 340/48/1

